<svg width="350" height="134" viewBox="0 0 350 134" fill="none" xmlns="http://www.w3.org/2000/svg">
<path fill-rule="evenodd" clip-rule="evenodd" d="M100.616 53V53C100.616 57.0786 103.808 60.385 107.746 60.385C111.684 60.385 114.877 57.0786 114.877 53V53H100.616ZM61 66.7278C61 59.1704 67.14 53.0392 74.7286 53.0014L74.7757 53.0014L74.7992 53.0014H81.0707L81.07 53H94.0849L108.295 80.4529H95.2803L81.1092 53.0758V80.4542H74.7992H74.4381L74.4381 80.4496C66.9839 80.2591 61 74.1886 61 66.7278Z" fill="#1F1F1F"/>
<path d="M147.36 72.1054H143.021C142.061 75.0675 139.335 77.1063 135.496 77.1063C130.351 77.1063 126.665 72.9517 126.665 67.1044C126.665 61.4494 130.159 56.8716 135.534 56.8716C139.182 56.8716 141.716 58.949 142.599 62.0649H146.937C145.977 56.3715 141.37 53.1401 135.496 53.1401C127.74 53.1401 122.557 59.0644 122.557 67.1044C122.557 75.0675 127.586 80.8378 135.496 80.8378C141.562 80.8378 146.4 77.491 147.36 72.1054Z" fill="#1F1F1F"/>
<path d="M158.463 80.8378C164.107 80.8378 168.33 76.6447 168.33 70.8359C168.33 65.0271 164.107 60.8339 158.463 60.8339C152.819 60.8339 148.672 64.9886 148.672 70.8359C148.672 76.6062 152.857 80.8378 158.463 80.8378ZM158.463 77.4141C154.892 77.4141 152.55 74.4135 152.55 70.8359C152.55 67.2198 154.892 64.2577 158.463 64.2577C162.033 64.2577 164.452 67.2198 164.452 70.8359C164.452 74.4135 162.033 77.4141 158.463 77.4141Z" fill="#1F1F1F"/>
<path d="M175.207 80.4531H179.968L187.301 61.2186H183.27L177.741 76.3754H177.472L171.905 61.2186H167.835L175.207 80.4531Z" fill="#1F1F1F"/>
<path d="M204.799 70.5666C204.799 63.9499 200.691 60.8339 196.007 60.8339C190.785 60.8339 186.677 64.7578 186.677 71.0282C186.677 76.9525 190.631 80.8378 196.16 80.8378C200.691 80.8378 203.916 78.5297 204.722 74.6828H200.96C200.345 76.6447 198.579 77.6449 196.16 77.6449C192.782 77.6449 190.708 75.2598 190.516 71.8361H204.722C204.761 71.336 204.799 70.9513 204.799 70.5666ZM196.007 64.0269C198.963 64.0269 200.96 66.1042 200.998 69.0663H190.555C190.939 66.2581 192.974 64.0269 196.007 64.0269Z" fill="#1F1F1F"/>
<path d="M207.156 80.4531H211.072V69.6818C211.072 65.8734 213.337 64.2577 215.833 64.2577C218.29 64.2577 220.21 65.8349 220.21 69.3741V80.4531H224.126V68.5277C224.126 63.5652 221.208 60.8339 216.946 60.8339C213.99 60.8339 212.416 62.0649 211.341 63.5268H211.072L210.688 61.2186H207.156V80.4531Z" fill="#1F1F1F"/>
<path d="M234.21 80.8378C235.477 80.8378 236.476 80.607 237.205 80.4147V77.3756C236.629 77.568 235.938 77.6834 235.324 77.6834C233.289 77.6834 232.828 76.5293 232.828 75.2598V64.3731H237.704V61.2186H232.828V55.9868H229.257V58.3335C229.257 60.4108 228.413 61.2186 226.147 61.2186H224.804V64.3731H228.95V75.7984C228.95 77.9911 229.718 80.8378 234.21 80.8378Z" fill="#1F1F1F"/>
<path d="M256.057 61.2186H252.141V71.99C252.141 75.7984 249.875 77.4141 247.38 77.4141C244.922 77.4141 243.003 75.8369 243.003 72.2977V61.2186H239.086V73.144C239.086 78.1065 242.004 80.8378 246.266 80.8378C249.223 80.8378 250.797 79.6068 251.872 78.145H252.141L252.524 80.4531H256.057V61.2186Z" fill="#1F1F1F"/>
<path d="M259.139 80.4531H263.055V70.7589C263.055 67.4506 264.591 64.6424 268.238 64.6424C268.891 64.6424 269.505 64.6808 270.119 64.7578V60.8339H268.891C265.704 60.8339 264.36 62.1034 263.324 63.9115H263.055L262.671 61.2186H259.139V80.4531Z" fill="#1F1F1F"/>
<path d="M288 70.5666C288 63.9499 283.892 60.8339 279.208 60.8339C273.986 60.8339 269.878 64.7578 269.878 71.0282C269.878 76.9525 273.832 80.8378 279.361 80.8378C283.892 80.8378 287.117 78.5297 287.923 74.6828H284.16C283.546 76.6447 281.78 77.6449 279.361 77.6449C275.982 77.6449 273.909 75.2598 273.717 71.8361H287.923C287.961 71.336 288 70.9513 288 70.5666ZM279.208 64.0269C282.164 64.0269 284.16 66.1042 284.199 69.0663H273.755C274.139 66.2581 276.174 64.0269 279.208 64.0269Z" fill="#1F1F1F"/>
</svg>
