<svg width="350" height="134" viewBox="0 0 350 134" fill="none" xmlns="http://www.w3.org/2000/svg">
<path d="M243.214 60.2773C236.855 60.2773 231.875 65.1692 231.875 71.5278C231.875 78.0192 236.943 83.0001 243.347 83.0001C247.883 83.0001 251.538 80.9267 253.139 78.0357L248.247 75.057C247.481 76.2581 245.689 77.6645 243.48 77.6645C240.501 77.6645 238.455 76.1088 237.877 73.1288H253.573C253.706 72.2838 253.751 71.4388 253.751 70.6828C253.754 64.857 249.129 60.2773 243.214 60.2773ZM237.967 69.1257C238.545 66.7688 240.279 65.3459 242.903 65.3459C245.215 65.3459 247.216 66.9468 247.483 69.1257H237.967Z" fill="#1F1F1F"/>
<path d="M113.519 60.2773C107.071 60.2773 102.179 65.1692 102.179 71.6606C102.179 78.1521 107.071 83.0001 113.519 83.0001C119.923 83.0001 124.858 78.1535 124.858 71.6606C124.858 65.1678 119.923 60.2773 113.519 60.2773ZM113.519 76.9962C110.54 76.9962 108.316 74.6845 108.316 71.6606C108.316 68.5478 110.539 66.2799 113.519 66.2799C116.454 66.2799 118.722 68.5478 118.722 71.6606C118.722 74.6845 116.454 76.9962 113.519 76.9962Z" fill="#1F1F1F"/>
<path d="M225.547 60.7197L220.835 74.3778L215.765 60.7197H208.961L218.022 82.5551H218.033H224.209L232.395 60.7197H225.547Z" fill="#1F1F1F"/>
<path d="M149.167 73.1575L144.59 60.7197H139.7L135.342 72.6837L131.696 60.7197H124.982L132.852 82.5551H137.699L142.146 70.5938L146.547 82.5551H146.577H152.626L159.353 60.7197H152.595L149.167 73.1575Z" fill="#1F1F1F"/>
<path d="M266.941 60.2773C259.938 60.2773 256.294 64.9734 256.294 70.3322V82.555H262.634V70.4815C262.634 68.1848 264.147 66.6209 266.941 66.6209C269.733 66.6209 271.086 68.3903 271.086 70.6048V82.555H277.426V70.1227C277.426 64.5926 273.136 60.2773 266.941 60.2773Z" fill="#1F1F1F"/>
<path d="M174.057 60.2825C171.469 60.2825 169.417 61.2644 167.989 62.7805V51H161.743V82.5533H167.989V70.855C167.989 67.6874 169.55 65.8577 171.961 65.8577C174.28 65.8577 175.397 67.2861 175.397 70.0511V82.552H181.643V68.9364C181.643 63.6282 178.831 60.2825 174.057 60.2825Z" fill="#1F1F1F"/>
<path d="M99.0204 77.1999C98.0343 77.1274 97.4427 76.6234 97.2318 75.6592C97.1195 75.1429 97.0962 74.5993 97.0949 74.0679C97.0866 67.1012 97.1346 51 97.1346 51H90.4569C90.4569 51 90.4391 68.0051 90.4569 75.4401C90.4583 76.2701 90.5322 77.1137 90.6966 77.9258C91.1389 80.1211 92.3263 81.7494 94.5051 82.5177C96.4717 83.2121 98.841 83.0299 100.862 82.7314C100.862 82.5191 100.862 77.5519 100.862 77.2082C100.093 77.2095 99.6832 77.2492 99.0204 77.1999Z" fill="#1F1F1F"/>
<path d="M72 63.8213V66.2508H78.7804V63.8213C78.7804 60.4906 81.4906 57.7804 84.8213 57.7804H87.5397V51H84.8213C77.7519 51 72 56.7519 72 63.8213Z" fill="#1F1F1F"/>
<path d="M72 77.8901V82.5546H78.7804V77.8901C78.7804 74.5595 81.4906 71.8493 84.8213 71.8493H85.3951V65.0688H84.8213C77.7519 65.0688 72 70.8208 72 77.8901Z" fill="#1F1F1F"/>
<path d="M200.654 62.8203C199.167 61.2454 197.108 60.2812 194.308 60.2812C188.574 60.2812 184.503 65.3142 184.503 71.6604C184.503 78.0067 188.574 82.9958 194.308 82.9958C197.108 82.9958 199.165 81.9892 200.654 80.4567V82.5521H206.856V60.7195H200.654V62.8203ZM195.663 77.0453C192.644 77.0453 190.587 74.7692 190.587 71.6618C190.587 68.5544 192.688 66.2345 195.663 66.2345C198.639 66.2345 200.653 68.5544 200.653 71.6618C200.654 74.7692 198.641 77.0453 195.663 77.0453Z" fill="#1F1F1F"/>
</svg>
