<?xml version="1.0" encoding="UTF-8"?>
<svg width="350px" height="134px" viewBox="0 0 350 134" version="1.1" xmlns="http://www.w3.org/2000/svg" xmlns:xlink="http://www.w3.org/1999/xlink">
    <!-- Generator: Sketch 55.1 (78136) - https://sketchapp.com -->
    <title>-g-svg-logo-opus</title>
    <desc>Created with Sketch.</desc>
    <g id="Page-1" stroke="none" stroke-width="1" fill="none" fill-rule="evenodd">
        <g id="revolve_assets" transform="translate(-34.000000, -4517.000000)">
            <g id="logo" transform="translate(34.000000, 4517.000000)">
                <rect id="Rectangle" x="0" y="0" width="350" height="134"></rect>
                <g id="Group" transform="translate(97.000000, 42.000000)" fill="#1F1F1F" fill-rule="nonzero">
                    <path d="M17.1963828,6.02901289 C27.1702848,6.02901289 34.3927656,13.4110354 34.3927656,23.7087882 C34.3927656,34.006541 27.135892,41.3717095 17.1963828,41.3717095 C7.25687354,41.3717095 0,34.006541 0,23.7087882 C0,13.4110354 7.25687354,6.02901289 17.1963828,6.02901289 Z M17.1963828,12.4503612 C11.0916669,12.4503612 7.63519396,17.3042938 7.63519396,23.7087882 C7.63519396,30.1132825 11.0744705,34.9166533 17.16199,34.9166533 C23.2495095,34.9166533 26.7403752,30.0627208 26.7403752,23.7087882 C26.7403752,17.3548556 23.2323132,12.4503612 17.1963828,12.4503612 Z M86.1882706,37.495305 C83.925728,39.9072082 80.726513,41.2667438 77.3837226,41.2368781 C71.8464873,41.2368781 69.2326371,38.2705859 69.2326371,33.4503612 L69.2326371,15.8211477 L75.8704409,15.8211477 L75.8704409,30.8380017 C75.8704409,34.2087882 77.6932575,35.4054174 80.5134642,35.4054174 C82.7255171,35.3688824 84.8058553,34.3679629 86.1882706,32.6750803 L86.1882706,15.8211477 L92.8604671,15.8211477 L92.8604671,40.6301365 L86.1882706,40.6301365 L86.1882706,37.495305 Z M99.5326636,32.9784511 C101.980408,35.0240222 105.054785,36.2103034 108.268426,36.3492376 C111.140222,36.3492376 112.498736,35.3885634 112.498736,33.8380017 C112.498736,32.2874399 110.297599,31.495305 107.339821,30.9222713 C103.006333,30.1132825 97.4175085,29.0851927 97.4175085,23.1863163 C97.4175085,19.0402488 101.114731,15.3997994 107.735338,15.3997994 C111.428635,15.342026 115.029607,16.5323335 117.932793,18.7705859 L115.370532,23.2368781 C113.353435,21.3626946 110.669315,20.3346176 107.890106,20.3717095 C105.499808,20.3717095 103.917741,21.248114 103.917741,22.6806983 C103.917741,24.1132825 105.912522,24.7705859 108.732728,25.3436196 C113.066217,26.1694623 118.878594,27.2818219 118.878594,33.4335073 C118.878594,37.9503612 114.957819,41.3717095 107.941695,41.3717095 C103.830604,41.4725189 99.8219867,40.107025 96.6608677,37.5290129 L99.5326636,32.9784511 Z M51.5891484,15.3997994 C49.3198251,15.3673472 47.0786151,15.8947578 45.0717193,16.9335073 L45.0717193,15.8211477 L38.9326106,15.8211477 L38.9326106,49.5290129 L45.0889157,49.5290129 L45.0889157,38.7930578 C47.0958115,39.8318073 49.3370215,40.3592179 51.6063448,40.3267657 C55.0406616,40.4799214 58.3835491,39.2168879 60.8242728,36.8439828 C63.2649965,34.4710777 64.5806096,31.2050529 64.4520427,27.8380017 C64.5661781,24.476507 63.2417477,21.2212213 60.798899,18.8590277 C58.3560503,16.4968342 55.0170976,15.2427069 51.5891484,15.3997994 L51.5891484,15.3997994 Z M51.5891484,34.9503612 C47.530802,34.9503612 45.2608795,31.6806983 45.2608795,27.8380017 C45.2608795,23.995305 47.530802,20.7762039 51.5891484,20.7762039 C55.6474947,20.7762039 57.9690064,24.1469904 57.9690064,27.8380017 C57.9690064,31.5290129 55.6818875,34.9503612 51.5891484,34.9503612 Z" id="Shape"></path>
                    <path d="M133.141393,40.6700143 L138.279911,31.113814 L144.634543,31.216385 L144.634543,34.5328481 C144.634543,34.9954768 145.010307,35.3705115 145.473834,35.3705115 C145.658373,35.365981 145.837332,35.3064437 145.987686,35.1995598 L146.809849,34.5670385 L143.521198,40.6700143 L133.141393,40.6700143 Z" id="Shape"></path>
                    <path d="M146.415896,32.7549504 L146.415896,29.5752487 L140.695014,29.5752487 C138.260365,29.5857782 135.860464,28.998708 133.70663,27.8657316 L133.552475,27.7631606 L133.552475,27.7631606 L133.415448,27.6776848 C133.206146,27.5745271 133.005647,27.4544608 132.815954,27.3186862 C127.196253,23.8049596 124.600311,16.9921828 126.460465,10.6393751 C128.320619,4.28656731 134.18379,-0.0589103622 140.814912,0.000603795935 C143.202616,0.0169499308 145.551764,0.603098042 147.666268,1.71012084 C154.461756,5.38257131 157.2879,13.6510589 154.157928,20.7028552 L147.306572,15.762351 L146.193227,14.8904973 C146.280077,11.8285107 143.8817,9.26707242 140.814912,9.14651999 C138.676414,9.10662261 136.694227,10.2606555 135.676395,12.1381748 C135.243279,12.9610274 135.014204,13.8755511 135.008388,14.8050214 C135.025075,16.8576068 136.160821,18.7381085 137.9716,19.7113353 C139.522197,20.3207583 141.192369,20.5664116 142.853191,20.4293325 L146.278869,20.4293325 L146.278869,17.3180115 C146.278869,17.3180115 146.278869,17.3180115 146.278869,17.3180115 L156.555903,24.8398865 C156.632161,24.8878462 156.677661,24.9721824 156.675802,25.0621237 C156.684015,25.1580387 156.637712,25.2504646 156.555903,25.3014561 L146.278869,32.8233311 L146.415896,32.7549504 Z" id="Shape"></path>
                </g>
            </g>
        </g>
    </g>
</svg>