<svg xmlns="http://www.w3.org/2000/svg" width="350" height="134" viewBox="0 0 350 134">
    <path fill="#1F1F1F" fill-rule="evenodd" d="M104.937 80.114l25.885-14.973V56.62l-25.885 14.973v8.521zm-4.223-32.007l9.221-5.334L103.411 39 77.527 53.972l16.153 9.344 9.44-5.455a.779.779 0 0 1 .705 0l2.346 1.358c.196.113.196.295 0 .408l-9.437 5.455.206.119 6.471 3.743 6.471-3.743 19.414-11.229-16.308-9.433-9.221 5.334a.782.782 0 0 1-.705 0l-2.348-1.359c-.193-.112-.193-.295 0-.407zM76 65.141l16.155 9.345v-8.521L76 56.62v8.521zm0 11.296l16.155 9.344v-7.765L76 68.673v7.764zm19.207-8.707v8.521l6.678 3.863v-8.521l-6.471-3.744-.207-.119zm9.73 23.68l25.885-14.973v-7.764l-25.885 14.972v7.765zm-9.73-11.628l6.678 3.863v7.765l-6.678-3.863v-7.765zm73.447.591c-3.056 0-5.595-.561-7.618-1.681-2.023-1.121-3.732-2.64-5.125-4.558l3.819-3.039c1.071 1.755 2.345 3.045 3.818 3.87 1.474.823 3.136 1.235 4.985 1.235 1.983 0 3.477-.432 4.482-1.297 1.005-.864 1.507-1.972 1.507-3.322 0-.891-.214-1.613-.643-2.167-.428-.554-.998-1.013-1.709-1.378-.71-.364-1.527-.654-2.452-.871-.924-.216-1.882-.432-2.874-.649a60.138 60.138 0 0 1-3.376-.83c-1.126-.31-2.131-.756-3.014-1.337a6.81 6.81 0 0 1-2.151-2.268c-.55-.933-.824-2.141-.824-3.627 0-1.161.248-2.255.743-3.281a8.25 8.25 0 0 1 2.091-2.695c.897-.769 1.963-1.378 3.195-1.823 1.233-.445 2.586-.669 4.06-.669 2.519 0 4.656.44 6.412 1.317 1.755.878 3.343 2.127 4.763 3.748l-3.618 2.876a12.344 12.344 0 0 0-1.367-1.6 8.137 8.137 0 0 0-1.628-1.235 7.792 7.792 0 0 0-2.009-.811c-.738-.189-1.588-.283-2.553-.283-1.983 0-3.41.411-4.28 1.235-.872.824-1.307 1.884-1.307 3.181 0 .756.201 1.371.602 1.844.403.472.939.864 1.609 1.174.67.311 1.44.568 2.311.77.871.202 1.788.398 2.753.588 1.153.243 2.312.533 3.478.871 1.165.337 2.21.823 3.135 1.458a7.58 7.58 0 0 1 2.271 2.472c.59 1.012.884 2.329.884 3.95a8.337 8.337 0 0 1-.683 3.302 8.12 8.12 0 0 1-2.01 2.816c-.884.809-1.969 1.465-3.256 1.965-1.286.5-2.76.749-4.421.749zm24.446.041c-1.527 0-2.954-.284-4.281-.851-1.326-.567-2.392-1.405-3.195-2.512v11.668h-4.221V58.09h4.221v3.241c.831-1.135 1.909-2.032 3.236-2.695a9.363 9.363 0 0 1 4.24-.992c1.447 0 2.82.27 4.12.81 1.3.541 2.452 1.31 3.457 2.309 1.005 1 1.803 2.195 2.392 3.586.59 1.391.885 2.952.885 4.68 0 1.701-.302 3.255-.905 4.659-.603 1.405-1.407 2.607-2.412 3.606a10.6 10.6 0 0 1-3.476 2.309c-1.314.54-2.667.811-4.061.811zm-.602-4.011a6.94 6.94 0 0 0 5.064-2.147 7.36 7.36 0 0 0 1.508-2.371 7.748 7.748 0 0 0 .542-2.897 7.739 7.739 0 0 0-.542-2.896 7.098 7.098 0 0 0-1.508-2.35 7.038 7.038 0 0 0-2.271-1.561 6.94 6.94 0 0 0-2.793-.567 6.822 6.822 0 0 0-2.834.588 7.304 7.304 0 0 0-2.272 1.58 7.148 7.148 0 0 0-1.507 2.35 7.619 7.619 0 0 0-.543 2.856c0 1.026.181 1.992.543 2.897a7.148 7.148 0 0 0 1.507 2.35 7.304 7.304 0 0 0 2.272 1.58 6.822 6.822 0 0 0 2.834.588zm13.593-18.313h4.261v3.808c.455-1.378 1.206-2.411 2.251-3.099 1.045-.689 2.265-1.034 3.658-1.034.75 0 1.44.075 2.07.223.629.148 1.159.358 1.587.628l-1.688 4.214c-.643-.432-1.554-.649-2.733-.649-1.554 0-2.788.419-3.698 1.256-.911.838-1.367 2.242-1.367 4.214v12.317h-4.341V58.09zm15.679 21.879h4.382V58.09h-4.382v21.879zm-.884-28.443c0-.891.288-1.634.864-2.228.577-.594 1.307-.892 2.191-.892.911 0 1.655.298 2.231.892.577.594.865 1.337.865 2.228 0 .892-.288 1.634-.865 2.229-.576.593-1.32.89-2.231.89-.911 0-1.649-.297-2.211-.89-.563-.595-.844-1.337-.844-2.229zm8.011 6.564h4.261v3.039a8.41 8.41 0 0 1 2.874-2.533c1.165-.634 2.511-.952 4.04-.952 1.366 0 2.605.223 3.718.668 1.112.447 2.049 1.081 2.813 1.905.764.824 1.354 1.836 1.769 3.039.416 1.202.623 2.545.623 4.031v12.681h-4.381V67.611c0-1.864-.469-3.35-1.407-4.457-.938-1.107-2.319-1.661-4.14-1.661-.831 0-1.602.148-2.312.445a5.361 5.361 0 0 0-1.849 1.277c-.523.553-.931 1.229-1.226 2.026-.295.797-.442 1.681-.442 2.653v12.074h-4.341V58.09zm33.169 22.324a10.68 10.68 0 0 1-4.1-.811 10.594 10.594 0 0 1-3.477-2.309c-1.005-.999-1.809-2.201-2.412-3.606-.603-1.404-.905-2.958-.905-4.659 0-1.728.295-3.289.885-4.68.59-1.391 1.387-2.586 2.392-3.586a10.575 10.575 0 0 1 3.497-2.309c1.326-.54 2.713-.81 4.16-.81a9.54 9.54 0 0 1 4.161.952c1.326.635 2.404 1.519 3.235 2.654v-3.16h4.342v20.136c0 1.62-.288 3.099-.864 4.436a10.362 10.362 0 0 1-2.372 3.444 10.692 10.692 0 0 1-3.537 2.229c-1.354.526-2.808.79-4.362.79-2.626 0-4.79-.392-6.492-1.175a11.703 11.703 0 0 1-4.321-3.403l3.497-2.877c.857 1.188 1.836 2.059 2.935 2.613 1.098.554 2.532.83 4.3.83 1.046 0 1.991-.161 2.834-.485a6.233 6.233 0 0 0 2.171-1.378 6.24 6.24 0 0 0 1.408-2.127c.334-.824.501-1.736.501-2.736v-1.701c-.83 1.161-1.916 2.074-3.255 2.735a9.41 9.41 0 0 1-4.221.993zm.562-4.011a6.82 6.82 0 0 0 2.834-.588 7.054 7.054 0 0 0 2.251-1.58 7.3 7.3 0 0 0 1.488-2.35 7.729 7.729 0 0 0 .543-2.897c0-.999-.181-1.951-.543-2.856a7.3 7.3 0 0 0-1.488-2.35 7.054 7.054 0 0 0-2.251-1.58 6.82 6.82 0 0 0-2.834-.588 7.041 7.041 0 0 0-2.833.567 7.027 7.027 0 0 0-2.271 1.561 7.098 7.098 0 0 0-1.508 2.35 7.739 7.739 0 0 0-.542 2.896c0 1.026.181 1.992.542 2.897a7.36 7.36 0 0 0 1.508 2.371 6.896 6.896 0 0 0 2.271 1.58 7.041 7.041 0 0 0 2.833.567z"/>
</svg>
