<svg xmlns="http://www.w3.org/2000/svg" width="240" height="94" fill="none" viewBox="0 0 240 94"><path fill="#B5B5B5" d="M155.094 45.158v-2.76h-3.387v-4.291l-.114.035-3.182.986-.063.019v3.252h-5.021v-1.812c0-.844.186-1.49.554-1.919.364-.426.886-.642 1.551-.642.478 0 .973.114 1.472.34l.124.056v-2.907l-.059-.022c-.464-.169-1.097-.254-1.881-.254-.988 0-1.886.218-2.669.649a4.573 4.573 0 0 0-1.83 1.831c-.431.784-.649 1.688-.649 2.689v1.99h-2.359v2.761h2.359v11.628h3.385V45.16h5.022v7.39c0 3.043 1.419 4.585 4.216 4.585.461 0 .944-.054 1.438-.162.503-.108.845-.218 1.046-.335l.046-.026v-2.786l-.138.091a2.35 2.35 0 0 1-.68.301 2.56 2.56 0 0 1-.669.116c-.655 0-1.141-.179-1.441-.532-.304-.356-.459-.978-.459-1.849v-6.791h3.388v-.002Zm-25.072 9.174c-1.229 0-2.198-.413-2.881-1.225-.687-.816-1.035-1.98-1.035-3.459 0-1.525.348-2.719 1.035-3.55.684-.825 1.644-1.243 2.854-1.243 1.174 0 2.109.399 2.777 1.189.673.793 1.015 1.978 1.015 3.522 0 1.563-.321 2.762-.954 3.566-.629.797-1.575 1.2-2.811 1.2Zm.151-12.28c-2.345 0-4.206.694-5.535 2.065-1.326 1.373-2 3.27-2 5.642 0 2.253.658 4.065 1.952 5.385 1.295 1.32 3.058 1.99 5.239 1.99 2.273 0 4.098-.704 5.426-2.094 1.327-1.39 1.998-3.27 1.998-5.586 0-2.288-.63-4.113-1.875-5.425-1.246-1.312-2.998-1.977-5.205-1.977Zm-12.993 0c-1.595 0-2.914.412-3.922 1.226-1.014.82-1.529 1.893-1.529 3.192 0 .676.111 1.276.33 1.784.22.511.559.961 1.011 1.338.449.375 1.142.767 2.058 1.165.771.321 1.346.593 1.712.807.357.21.611.42.754.626.139.2.209.476.209.816 0 .966-.716 1.437-2.188 1.437-.545 0-1.169-.115-1.85-.341a6.955 6.955 0 0 1-1.895-.974l-.14-.101v3.298l.051.025c.479.223 1.083.413 1.795.56a9.5 9.5 0 0 0 1.917.225c1.73 0 3.124-.415 4.14-1.235 1.024-.823 1.543-1.922 1.543-3.268 0-.968-.279-1.8-.829-2.472-.547-.665-1.497-1.275-2.819-1.816-1.054-.428-1.73-.783-2.008-1.055-.267-.265-.405-.637-.405-1.11 0-.418.168-.752.514-1.024.349-.273.833-.412 1.442-.412.564 0 1.141.09 1.714.267a5.457 5.457 0 0 1 1.498.702l.138.096v-3.13l-.052-.022c-.389-.169-.9-.312-1.522-.43a9.183 9.183 0 0 0-1.667-.174Zm-14.276 12.28c-1.229 0-2.199-.413-2.881-1.225-.687-.816-1.035-1.98-1.035-3.459 0-1.525.348-2.719 1.035-3.55.683-.825 1.642-1.243 2.854-1.243 1.173 0 2.107.399 2.777 1.189.673.793 1.014 1.978 1.014 3.522 0 1.563-.32 2.762-.954 3.566-.629.797-1.575 1.2-2.81 1.2Zm.15-12.28c-2.346 0-4.208.694-5.534 2.065-1.328 1.373-2.001 3.27-2.001 5.642 0 2.254.658 4.065 1.952 5.385 1.295 1.321 3.058 1.99 5.239 1.99 2.273 0 4.099-.704 5.426-2.094 1.326-1.39 1.999-3.27 1.999-5.586 0-2.288-.63-4.113-1.877-5.425-1.244-1.312-2.995-1.977-5.204-1.977ZM90.38 44.89v-2.492h-3.345v14.388h3.345v-7.36c0-1.251.28-2.28.834-3.056.546-.767 1.275-1.157 2.164-1.157.3 0 .64.051 1.006.15.362.1.625.206.78.32l.14.102v-3.412l-.055-.023c-.312-.134-.752-.202-1.31-.202-.84 0-1.592.273-2.237.811-.566.473-.973 1.122-1.286 1.93h-.036v.001Zm-9.334-2.838c-1.534 0-2.903.333-4.067.99a6.623 6.623 0 0 0-2.681 2.79c-.612 1.192-.922 2.584-.922 4.135 0 1.36.3 2.607.895 3.707a6.336 6.336 0 0 0 2.502 2.56c1.065.596 2.295.9 3.657.9 1.59 0 2.946-.32 4.033-.957l.044-.025v-3.1l-.139.102a6.258 6.258 0 0 1-1.636.863c-.591.209-1.132.313-1.604.313-1.312 0-2.366-.414-3.13-1.233-.766-.822-1.155-1.974-1.155-3.423 0-1.459.406-2.64 1.204-3.512.797-.869 1.852-1.31 3.137-1.31 1.099 0 2.17.376 3.184 1.12l.14.104v-3.269l-.046-.026c-.381-.215-.9-.394-1.547-.529a9.25 9.25 0 0 0-1.869-.201Zm-9.974.347h-3.345v14.388h3.345V42.398Zm-1.639-6.13a2 2 0 0 0-1.423.566 1.888 1.888 0 0 0-.598 1.41c0 .551.199 1.017.59 1.385.39.365.872.55 1.432.55.56 0 1.042-.184 1.438-.55a1.828 1.828 0 0 0 .598-1.384c0-.54-.195-1.01-.582-1.396-.386-.386-.875-.581-1.454-.581Zm-8.344 5.068h-.11l-6.057 15.45h-2.42l-6.154-15.452h-.11v15.451h-3.207V36.71h4.916l5.828 14.913 6.004-14.913h4.723v20.078H61.09v-15.45Zm-45.355 4.585H0V30h15.733v15.922h.001Zm17.37 0H17.373V30h15.733v15.922Zm-17.37 17.586H0V47.586h15.733v15.922Zm17.37 0H17.373V47.586h15.733v15.922Z"/></svg>