<svg xmlns="http://www.w3.org/2000/svg" width="240" height="94" fill="none" viewBox="0 0 240 94"><path fill="#B5B5B5" d="M67.272 37.287c0 1.408-1.151 2.542-2.58 2.542a2.603 2.603 0 0 1-1.824-.743 2.506 2.506 0 0 1-.754-1.8c0-1.407 1.112-2.541 2.579-2.541 1.469.04 2.579 1.173 2.579 2.542Zm-10.63 5.125v.626s-1.23-1.566-3.848-1.566c-4.324 0-7.696 3.247-7.696 7.745 0 4.46 3.333 7.744 7.696 7.744 2.658 0 3.847-1.603 3.847-1.603v.665c0 .312.24.546.556.546h3.212V41.862h-3.212a.574.574 0 0 0-.39.166.559.559 0 0 0-.166.385v-.001Zm0 9.425c-.595.861-1.786 1.604-3.213 1.604-2.54 0-4.483-1.564-4.483-4.224s1.944-4.225 4.483-4.225c1.388 0 2.658.783 3.212 1.604v5.242Zm6.148-9.974h3.807v14.708H62.79V41.862v.001Zm56.886-.392c-2.619 0-3.849 1.566-3.849 1.566v-8.253h-3.808v21.787h3.214a.572.572 0 0 0 .389-.164.557.557 0 0 0 .165-.384v-.665s1.231 1.604 3.848 1.604c4.324 0 7.695-3.285 7.695-7.744 0-4.46-3.371-7.747-7.655-7.747h.001Zm-.636 11.931c-1.468 0-2.618-.742-3.214-1.604v-5.241c.596-.782 1.865-1.604 3.214-1.604 2.539 0 4.482 1.564 4.482 4.225 0 2.66-1.943 4.224-4.482 4.224Zm-9.004-5.553v8.76h-3.809v-8.33c0-2.424-.794-3.403-2.934-3.403-1.15 0-2.341.587-3.096 1.448v10.249H96.39v-14.71h3.014c.318 0 .556.274.556.548v.626c1.11-1.135 2.578-1.566 4.046-1.566 1.666 0 3.055.47 4.165 1.409 1.348 1.095 1.865 2.503 1.865 4.967v.002Zm-22.89-6.378c-2.617 0-3.847 1.566-3.847 1.566v-8.253h-3.808v21.787h3.212a.571.571 0 0 0 .39-.164.555.555 0 0 0 .166-.384v-.665s1.23 1.604 3.848 1.604c4.324 0 7.696-3.285 7.696-7.744.04-4.46-3.333-7.747-7.657-7.747Zm-.635 11.931c-1.467 0-2.617-.742-3.212-1.604v-5.241c.595-.782 1.865-1.604 3.212-1.604 2.54 0 4.483 1.564 4.483 4.225 0 2.66-1.944 4.224-4.483 4.224Zm-10.314-11.93c1.15 0 1.745.196 1.745.196v3.48s-3.173-1.056-5.156 1.175v10.286h-3.809V41.862h3.214a.57.57 0 0 1 .389.164c.103.102.162.24.165.384v.626c.716-.822 2.262-1.566 3.452-1.566v.001ZM36.647 55.24c-.197-.47-.395-.977-.593-1.408-.32-.703-.636-1.368-.912-1.995l-.04-.039a405.51 405.51 0 0 0-8.767-17.678l-.12-.236a80.659 80.659 0 0 1-.95-1.839c-.398-.704-.794-1.446-1.429-2.15-1.27-1.566-3.094-2.427-5.037-2.427-1.984 0-3.77.861-5.078 2.348-.595.703-1.032 1.446-1.428 2.15-.31.617-.627 1.23-.951 1.84l-.12.235c-3.054 5.867-6.03 11.812-8.767 17.679l-.04.078c-.277.626-.594 1.291-.911 1.994-.213.464-.411.933-.595 1.408-.517 1.448-.675 2.817-.477 4.226a8.254 8.254 0 0 0 1.705 3.921 8.42 8.42 0 0 0 3.453 2.571 8.244 8.244 0 0 0 3.213.626c.317 0 .713-.038 1.031-.078a10.573 10.573 0 0 0 3.967-1.329c1.627-.9 3.174-2.191 4.919-4.068 1.746 1.877 3.332 3.168 4.919 4.068 1.31.743 2.658 1.172 3.966 1.329.318.04.715.078 1.033.078 1.11 0 2.22-.194 3.212-.626a8.318 8.318 0 0 0 5.157-6.492c.315-1.37.157-2.738-.358-4.186h-.001ZM18.76 57.275c-2.143-2.66-3.531-5.163-4.007-7.275-.198-.9-.239-1.682-.12-2.386.079-.59.296-1.153.636-1.644.754-1.056 2.023-1.72 3.49-1.72 1.469 0 2.778.625 3.492 1.72.317.47.556 1.018.635 1.644.119.704.08 1.525-.12 2.386-.477 2.072-1.865 4.576-4.006 7.275Zm15.827 1.838c-.278 2.034-1.667 3.794-3.61 4.577-.952.39-1.983.508-3.015.39-.991-.117-1.983-.43-3.014-1.016-1.429-.783-2.856-1.995-4.523-3.794 2.618-3.169 4.206-6.064 4.8-8.644a9.654 9.654 0 0 0 .198-3.326 6.294 6.294 0 0 0-1.07-2.66c-1.231-1.76-3.294-2.777-5.594-2.777-2.3 0-4.363 1.057-5.593 2.776a6.298 6.298 0 0 0-1.071 2.661 8.015 8.015 0 0 0 .198 3.326c.595 2.58 2.222 5.514 4.8 8.682-1.627 1.8-3.095 3.012-4.523 3.795-1.032.587-2.022.9-3.014 1.017a6.43 6.43 0 0 1-3.015-.391c-1.943-.782-3.332-2.543-3.61-4.577a6.394 6.394 0 0 1 .358-3.05c.118-.392.317-.783.516-1.253.277-.625.594-1.29.912-1.955l.04-.079a424.056 424.056 0 0 1 8.727-17.561l.118-.236c.318-.586.635-1.212.952-1.798.318-.626.675-1.214 1.111-1.722.833-.938 1.944-1.447 3.173-1.447 1.231 0 2.341.509 3.175 1.447.436.51.793 1.097 1.11 1.722.319.586.636 1.212.952 1.798l.12.236a514.994 514.994 0 0 1 8.686 17.6v.04c.318.627.595 1.33.912 1.957.2.468.398.86.517 1.251.317 1.016.435 1.994.277 3.011Z"/></svg>