<svg xmlns="http://www.w3.org/2000/svg" width="240" height="94" fill="none" viewBox="0 0 240 94"><path fill="#B5B5B5" d="M152.512 46.35c1.178-.57 1.953-1.695 1.9-3.031a3.053 3.053 0 0 0-.227-1.237 3.116 3.116 0 0 0-.71-1.05 3.204 3.204 0 0 0-1.077-.69 3.275 3.275 0 0 0-1.269-.222c-.521-.052-.982.048-1.382.169l-18.315 7.071c-1.222.568-2.071 1.736-2.074 3.031.003 1.88 1.513 3.353 3.456 3.367.48-.017.951-.132 1.383-.337l18.315-7.071ZM.461 41.636v15.995h12.095v-3.706H5.298v-2.524h6.912v-3.704H5.298v-2.358h7.257v-3.704H.461v.001Zm31.274 0H36.4v15.995h-4.665V41.635v.001Zm-4.493 7.913c1.048-.866 1.69-2.087 1.728-3.536-.038-2.341-2.054-4.306-4.492-4.378h-8.812v15.996h4.838V45.339h2.42a1.455 1.455 0 0 1 1.554 1.348 1.599 1.599 0 0 1-.483 1.044 1.68 1.68 0 0 1-1.072.47h-2.42v3.536h2.42l2.246 5.894h4.666l-2.593-6.903c-.044-.139-.111-.227-.172-.338-.21-.152-.353-.556.172-.841Zm70.497-7.914v15.996h4.837v-8.587l5.185 8.586h5.183V41.636h-4.665v8.418l-5.011-8.418h-5.53Zm-9.677 3.031c1.864.077 3.346 2.244 3.283 4.883.062 2.703-1.418 4.868-3.283 4.883-1.791-.015-3.272-2.18-3.282-4.883.01-2.64 1.491-4.805 3.282-4.883V41.13c-4.391.017-7.98 3.793-7.947 8.419-.034 4.688 3.556 8.465 7.947 8.418 4.464.047 8.055-3.73 8.122-8.418-.067-4.626-3.657-8.401-8.122-8.419v3.536ZM38.128 49.38c.026 7.478 7.135 8.53 8.467 8.587 1.188-.056 3.078-.144 5.528-.841V53.42c-4.43 1.859-9.02.807-8.984-4.04-.036-4.8 4.824-6.202 8.639-3.536v-3.872c-2.106-.986-4.085-.81-5.356-.843-1.249.032-8.268.821-8.294 8.25Zm26.61-4.04v-3.2c-1.454-.67-3.728-.715-5.012-.673-1.414-.042-4.923.484-5.701 3.03-.663 2.54.148 5.259 2.937 6.062 2.79.95 4.59 1.477 3.973 3.031-.464 1.427-4.153.988-6.392.168l-.52 3.367c2.939.698 5.908.874 8.122.337 2.286-.69 3.546-2.445 3.801-4.21.285-1.918-.345-3.935-2.418-4.713-2.247-.8-2.786-.8-4.32-1.516-1.526-.687-.986-2.529 1.382-2.525 1.322-.091 2.941.347 4.147.841Zm87.774-8.082c1.178-.598 1.953-1.722 1.9-3.03.053-1.809-1.457-3.28-3.283-3.2-.521-.08-.982.02-1.382.169l-18.315 7.07c-1.222.542-2.071 1.71-2.074 3.032.003 1.853 1.513 3.325 3.456 3.367a4.842 4.842 0 0 0 1.383-.336l18.315-7.072ZM78.214 45.34v-3.198c-1.522-.672-3.794-.716-5.183-.674-1.31-.042-4.82.484-5.53 3.03-.73 2.54.08 5.259 2.938 6.062 2.721.95 4.52 1.477 3.974 3.031-.533 1.427-4.222.988-6.393.168l-.519 3.367c2.87.698 5.839.874 8.12.337 2.219-.69 3.479-2.445 3.803-4.21.216-1.918-.414-3.935-2.592-4.713-2.141-.8-2.682-.8-4.147-1.516-1.595-.687-1.055-2.529 1.383-2.525 1.252-.091 2.872.347 4.146.841Zm74.298 10.102c1.178-.541 1.953-1.666 1.9-3.03.053-1.752-1.457-3.223-3.283-3.199-.521-.024-.982.075-1.382.337l-18.315 7.071c-1.222.428-2.071 1.595-2.074 3.03.003 1.742 1.513 3.213 3.456 3.2.484.01.961-.107 1.383-.337l18.315-7.072Z"/></svg>