<svg xmlns="http://www.w3.org/2000/svg" width="240" height="94" fill="none" viewBox="0 0 240 94"><path fill="#B5B5B5" fill-rule="evenodd" d="M108.286 45.222c.219 0 .394.045.526.222-.132 3.864-3.679 6.262-3.679 10.125.131.133.219.31.394.222 2.847-3.153 5.65-7.638 9.81-8.97 1.095-.089 2.087.877 2.496 1.599 1.445 2.93 1.095 7.06-.92 9.725-2.08 2.616-5.693 5.24-9.809 4.796-1.708 4.263-2.89 8.748-3.548 13.411-.349.933-1.182.089-1.707-.089-3.547-2.842-.635-10.365-.394-11.324.24-.958 1.189-3.215 1.882-5.106-1.663-3.02-.613-6.662.745-9.46 1.051-1.865 2.496-3.73 4.204-5.15Zm-68.535-7.638c4.04 3.35 9.283 9.059 8.626 15.631-.788 5.196-6.218 9.104-10.816 10.348-4.467 1.332-10.073 1.199-14.628.133-.306.844-.613 1.865-1.576 2.22-.613.222-1.401.09-1.883-.31-1.358-1.288-.263-3.775-2.233-4.575-3.854-1.642-8.015-4.885-9.985-8.881-.263-.8.044-1.599.525-2.22 3.022-2.443 6.832-3.42 10.642-4.175.219.089.131-.222.306-.31.22-2.665.307-5.374 1.14-7.772.189-.337.656-.444.962-.222 2.41 1.865 1.27 5.373 2.321 7.904 4.599.223 9.198.445 12.832 3.065 1.226 1.021 1.525 2.971 1.138 4.085-.386 1.114-1.663 1.91-2.846 1.999-.788 0-2.277.077-2.19-.534.088-.61 2.68-1.61 1.883-2.441-1.144-1.198-6.867-1.91-10.415-2.354-.438-.089-.84.044-.84.533-.087 3.374-.35 7.105.22 10.346.043.222.307.489.525.533 6.262 1.022 12.875.444 17.78-3.197 2.277-1.865 3.022-4.485 2.628-7.372-1.971-8.037-10.248-12.878-17.036-15.987-6.613-2.93-13.926-4.44-21.765-4.04-1.248.092-3.226.529-3.24.976-.015.448 2.24.307 1.97 1.155-.27.848-2.562.345-3.24.133-.68-.21-.614-1.199-.438-1.82 1.707-3.064 6.474-3.313 8.627-3.42 11.911-.31 23.429 4.289 31.006 10.57Zm60.871 8.304c.526.108 1.227 1.155 1.665 1.821.211.36.43.914 0 1.154-1.971.889-4.643.49-6.92.756-.613.533-1.094 1.42-.875 2.22.218.133.416.337.656.311 1.402.089 3.503-.666 4.423.666.227.396-.029 1.876-.656 1.91-1.708.222-4.519-.22-5.343.222-1.051.71-.964 2.087-1.358 3.197.745.488 1.526-.011 2.409-.133 1.62-.267 3.415-.755 5.036-.4.306.577.744 1.2.438 1.91-2.759 2.22-6.32 4.496-10.116 2.886-1.423-.648-2.058-2.842-1.577-4.707.306-1.333 1.664-2.62.833-4.041-.132-.622.219-1.155.744-1.288 1.445 0 1.138-1.82 1.883-2.664-.832-.933-2.934-.888-2.715-2.754 1.007-.532 2.233-.355 3.372-.532 2.584-.534 5.474-.844 8.101-.534Zm-48.26-.222c1.052.534 1.227 1.6 1.27 2.665.395 4.263.614 8.215.526 12.7-.087.578-.744.711-1.182.933-.7.133-1.606-.019-1.884-.4-1.007-1.643-.656-3.863-.744-5.862.131-3.152.088-6.572.963-9.502.168-.426.658-.8 1.052-.534Zm29.955-2.664c1.97.888 2.803 2.975 3.679 4.707 1.401 3.464 2.583 8.926 0 12.257-.701.799-1.927 1.535-2.716.932-2.89-2.354-4.116-5.728-5.912-8.748-.263-.133-.263.222-.394.355-.657 3.064.57 7.061-1.489 9.46-.788.132-1.525-.279-1.795-1.067-1.008-3.153.044-6.439.306-9.592.613-1.598.877-3.464 2.234-4.663 2.19.889 3.24 3.375 4.51 5.196.92 1.377 1.664 2.931 2.716 4.175.919-.4.466-1.618.437-2.355-.35-2.886-1.138-5.55-1.883-8.303-.043-.71-.438-1.91.307-2.354Zm-10.423 2.975c.35.133.744.266.876.666 0 .667-.526 1.5-.963 1.599-4.205.666-8.89.266-12.832 1.599-.13.488.438.577.745.71 3.372.533 6.92.666 10.203 1.51 1.738.447 2.365 2.531 2.496 4.264.081 1.365-.437 3.02-1.75 3.951-3.242 2.088-8.19 1.999-11.475.09-1.255-.715-2.452-1.866-2.54-3.287.007-1.129.482-2.017 1.27-2.442 3.153-1.288 7.05-.578 9.766 1.065.175.889-.774.84-1.226 1.155-3.021 1.776-5.3-1.998-8.102-.622-.394.267-.678 1.01-.218 1.244 3.459 1.554 7.312.444 10.729-.533.394-.133.875-.533.919-.932-.131-1.422-1.708-1.733-2.715-2.133-2.978-.754-6.263-.754-9.46-1.065-.612-.133-1.393-.566-1.576-1.066-.35-1.066-.35-2.53.438-3.42 4.073-3.64 10.248-3.33 15.415-2.353Zm-53.603 3.509c-3.021.044-6.218.355-9.02 1.42-.57.222-1.27.845-.833 1.6 1.139 1.553 2.766 2.83 4.292 3.73 1.525.899 3.547 2.042 5.386 2.308.438-2.886.438-5.728.395-8.703-.176-.089 0-.267-.22-.355Zm96.389 1.51c-2.014 2.308-4.029 4.618-5.036 7.37 1.358.178 2.496-.71 3.679-1.198 2.014-1.288 3.284-3.42 3.152-5.861-.087-.4-.437-.712-.613-1.067-.525-.088-.744.622-1.182.756ZM59.72 32.433a3.58 3.58 0 0 1 2.19.888c.831.8 1.05 2.132.656 3.197-1.533 3.198-5.175 5.333-7.663 6.04-1.489.355-3.372.355-4.73-.178-.657.4-1.211 1.691-2.015 1.155-1.161-.92-.156-2.36-.826-3.382-.139-.211-.487-.227-.663-.57-.92-2.043.22-3.997 1.49-5.552 2.116-2.394 8.189-5.062 11.56-1.598Zm-7.357 6.306c-.132.355-.92.754-.307 1.155 2.89.266 5.65-.578 7.751-2.532.613-.578 1.051-1.332.745-2.131a1.552 1.552 0 0 0-.745-.756c-3.021-.266-5.298 2.043-7.444 4.264Zm.306-4.708c-1.183.222-2.518.744-3.24 1.6-.723.854-1.183 1.687-.745 2.575 1.533-1.155 2.277-2.753 3.985-3.73 0-.178.263-.312 0-.445Z" clip-rule="evenodd"/></svg>