<svg xmlns="http://www.w3.org/2000/svg" width="240" height="94" fill="none" viewBox="0 0 240 94"><path fill="#B5B5B5" d="M38.893 41.062c-5.964 0-10.501 4.157-10.501 10.078 0 5.92 4.537 10.077 10.501 10.077 2.852 0 5.056-1.26 5.964-2.267v2.015h4.667V41.314h-4.667v2.015c-.908-1.007-3.241-2.267-5.964-2.267Zm.13 15.998c-3.5 0-6.094-2.645-6.094-5.92 0-3.276 2.723-5.921 6.094-5.921 3.37 0 5.963 2.645 5.963 5.92 0 3.276-2.592 5.921-5.963 5.921Zm40.06-15.998c-2.723 0-4.797 1.008-6.093 2.267v-2.015h-4.538v29.98l4.538-.503V58.824c1.296 1.386 3.5 2.267 6.093 2.267 6.223 0 10.371-3.905 10.371-10.077 0-6.047-4.148-9.952-10.371-9.952Zm-.13 15.998c-3.63 0-5.963-2.52-5.963-5.92 0-3.402 2.333-5.921 5.963-5.921s6.093 2.52 6.093 5.92c-.13 3.402-2.463 5.921-6.093 5.921Zm45.505-15.998c-2.852 0-4.408 1.008-5.315 2.267v-2.015h-4.538v19.651h4.538V50.132c0-2.898 2.074-4.913 4.926-4.913h.389v-4.157Zm-22.817 0c-5.964 0-10.63 4.535-10.63 10.078 0 5.542 4.666 10.077 10.63 10.077 4.926 0 8.945-2.645 10.242-6.172h-5.445c-.648 1.26-2.334 2.141-4.797 2.141-2.982 0-5.315-2.015-5.834-4.535h16.206c.129-.504.129-1.008.129-1.511 0-5.543-4.667-10.078-10.501-10.078Zm-5.575 7.684c.648-2.015 2.852-3.653 5.575-3.653 2.593 0 4.926 1.638 5.575 3.653h-11.15Zm-36.819-3.779c-.907 0-1.944.378-1.944 1.512 0 1.26 1.296 1.637 3.76 2.52 3.37 1.259 5.055 2.77 5.055 5.794 0 3.149-2.722 6.424-7.39 6.424-4.666 0-7.13-3.401-7.26-6.172h4.408c.26 1.26 1.297 2.267 2.853 2.267 1.685 0 2.722-1.134 2.722-2.393 0-.882-.389-1.89-3.24-2.646-3.112-.756-5.316-2.393-5.316-5.668 0-3.024 2.722-5.417 6.223-5.417 3.111 0 5.056 2.141 5.963 3.527l-3.76 1.638c-.518-1.008-1.296-1.386-2.074-1.386Z"/><path fill="#B5B5B5" d="M14.65 33C6.353 33 0 39.298 0 47.109c0 7.81 6.353 14.108 14.65 14.108 5.315 0 10.242-2.771 12.446-6.676l-4.279-2.267c-1.685 2.897-4.537 4.534-8.167 4.534-2.593 0-5.186-1.007-6.871-2.77-1.815-1.89-2.853-4.284-2.853-6.803 0-2.52 1.038-4.913 2.853-6.803 1.685-1.763 4.148-2.771 6.87-2.771 2.853 0 4.538.882 5.705 1.764 1.297.881 2.593 1.763 4.797 1.763 4.019 0 5.834-3.15 6.223-4.787l-4.538-.882c0 .126-.389 1.386-1.685 1.386-.648 0-1.037-.252-1.945-.882C21.521 34.512 19.317 33 14.65 33Z"/></svg>