<svg xmlns="http://www.w3.org/2000/svg" width="240" height="94" fill="none" viewBox="0 0 240 94"><path fill="#B5B5B5" d="M19.71 29.823c-.861-2.083-2.173-3.91-4.442-4.823l-.87.01c1.13 1.433 1.061 3.018.607 4.758-.318.05-.634.097-.948.144-.726.108-1.444.216-2.16.35-3.226.598-6.166 1.827-8.553 4.179a11.116 11.116 0 0 0-2.868 4.74A12.866 12.866 0 0 0 0 42.557l.022.106c.168.82.338 1.645 1.208 2.118.158.032.335.032.517.032H32.22c1.058 0 1.575-.457 1.788-1.512.49-2.334-.177-4.444-1.325-6.394-1.724-2.928-4.351-4.768-7.527-5.76-1.165-.365-2.368-.63-3.607-.905a97.051 97.051 0 0 1-1.838-.419ZM32.066 46.33H2.074c-.01.404-.029.8-.048 1.19-.034.725-.068 1.43-.039 2.134a17.88 17.88 0 0 0 1.838 7.587c2.065 3.992 5.418 6.27 9.701 7.248.949.215 1.765.516 2.378 1.338.366.375.777.702 1.225.973.314-.217.609-.462.88-.73a5.202 5.202 0 0 1 2.94-1.69 13.942 13.942 0 0 0 8.272-5.445c2.137-2.982 2.9-6.399 3.009-9.998.015-.568-.037-1.134-.09-1.72-.027-.29-.054-.585-.074-.888Z"/><path fill="#B5B5B5" fill-rule="evenodd" d="m53.304 54.606-.034-.596c-.022-.394-.047-.772-.072-1.14a40.065 40.065 0 0 1-.112-2.416v-.006a166.681 166.681 0 0 1-.01-3.2c.005-1.408.01-2.826-.03-4.213-.064-2.189-.84-4.19-3.109-5.253l-.013-.006-.013-.006a8.205 8.205 0 0 0-8.75 1.644l-.363.343 1.117 1.508.324-.033c.138-.014.273-.046.403-.096l.064-.024.057-.04c.1-.069.228-.168.335-.252.06-.046.114-.088.153-.116l.013-.01a5.659 5.659 0 0 1 3.923-1.188c1.277.107 2.199.529 2.751 1.236.498.639.768 1.604.614 3.019l-.496-.01h-.001c-.712-.014-1.458-.03-2.179.015-1.804.108-3.733.323-5.424 1.453-1.49.995-2.46 2.417-2.392 4.36.072 2.058 1.069 3.643 2.98 4.474 2.046.97 4.444.82 6.356-.396.459-.286.859-.638 1.221-.983l.238-.23.277 2.162h2.172ZM42.18 40.67Zm8.866 3.66Zm-3.136 0Zm3.365 6.929Zm-.132-5.747Zm-6.98 1.384c1.23-.596 2.574-.73 4.022-.82.613-.032 1.21-.022 1.859-.011l.552.008c.047 1.671-.12 3.115-.982 4.442-.63.952-1.762 1.585-3 1.773-1.24.189-2.495-.08-3.358-.816-.673-.574-.924-1.471-.756-2.376a3.067 3.067 0 0 1 1.663-2.2ZM80.118 37.16h-.01c-2.367.02-4.505.817-6.057 2.32-1.555 1.505-2.48 3.678-2.488 6.364-.008 2.627.883 4.828 2.421 6.376 1.538 1.548 3.686 2.406 6.123 2.415 4.925.02 8.56-3.632 8.56-8.606v-.001c-.006-2.738-.92-4.953-2.472-6.492-1.55-1.536-3.692-2.353-6.077-2.376Zm6.124 8.695v.015c-.002 1.73-.49 3.17-1.348 4.242-.855 1.071-2.106 1.815-3.7 2.11-3.159.585-6.197-1.17-6.957-4.421l-.001-.003c-.655-2.746-.167-5.143 1.983-7.015 1.414-1.226 3.112-1.496 5-1.234 3.372.468 5.175 3.564 5.023 6.29v.016ZM104.644 54.592v-.565c0-.39 0-.7-.004-1.012 0-.749-.004-1.495-.009-2.239v-.002c-.012-1.809-.024-3.606.034-5.406.068-2.126.728-3.936 2.462-5.14l.002-.001c1.034-.725 2.449-1.014 3.653-.67 1.159.33 2.195 1.267 2.502 3.17.1.621.152 1.249.157 1.878v8.365c.003.252.019.515.036.777l.01.152.008.145.03.534h2.273v-2.052c0-.964.002-1.93.004-2.896v-.006a702.6 702.6 0 0 0-.004-5.807c-.011-1.645-.374-3.314-1.542-4.673-2.197-2.56-6.501-2.684-8.996-.358-.257.24-.503.502-.748.777l-.107-2.342h-2.132v17.371h2.371Zm-.636-13.599c.199-.22.382-.43.558-.632l-.017.02c-.171.196-.349.4-.541.612Zm10.001 3.61v8.361c.003.236.018.476.034.733l.001-.002a13.708 13.708 0 0 1-.035-.73v-8.362ZM130.134 40.49l-.269-.49a6.11 6.11 0 0 0-.775-1.1l-.025-.028-.028-.025c-2.088-1.809-4.511-2.176-7.031-1.228a4.216 4.216 0 0 0-2.913 3.855c-.066 1 .093 1.912.54 2.686.451.78 1.165 1.37 2.116 1.768l.004.002c.498.204.993.371 1.473.534l.18.061.014.004c1.043.293 2.069.644 3.073 1.051 1.448.685 1.748 2.497.589 3.705-.949.989-2.129 1.214-3.514.996l-.01-.002a4.405 4.405 0 0 1-3.113-2.011l-.309-.49-2.016 1.327.374.48c.067.086.135.178.204.271.161.217.33.445.508.634l.006.007.006.006a7.293 7.293 0 0 0 7.873 1.64l.004-.003a4.924 4.924 0 0 0 3.046-4.858 4.444 4.444 0 0 0-3.116-4.102 33.624 33.624 0 0 0-1.525-.472l-.14-.041c-.46-.134-.91-.265-1.354-.41l-.013-.004a10.076 10.076 0 0 1-1.638-.653c-.386-.208-.592-.475-.707-.789-.124-.336-.155-.755-.124-1.263v-.016a1.868 1.868 0 0 1 1.113-1.655l.01-.005.009-.004c.75-.361 1.685-.49 2.567-.352.882.137 1.662.531 2.158 1.159h.001a10.685 10.685 0 0 1 .364.489l.047.065.298.407 2.043-1.147Zm-1.881.406-.058-.08-.043-.058.101.138Zm-8.631 11.21c-.155-.166-.29-.349-.44-.55-.074-.1-.152-.206-.238-.316l1.02-.671c.001 0 0 0 0 0l-1.02.671a13.281 13.281 0 0 1 .34.454c.112.148.22.285.338.412ZM69.85 39.936l-.453-.406-.205-.188c-.2-.185-.401-.37-.618-.53-2.562-2.03-6.369-2.173-9.15-.476-4.03 2.454-5.06 7.892-3.065 11.83 1.852 3.658 5.89 5.293 9.81 4.14 1.186-.348 2.358-.868 3.276-2.031l.316-.4-1.537-1.48-.39.297c-.126.097-.242.191-.346.276l-.038.031a7.263 7.263 0 0 1-.315.247 5.82 5.82 0 0 1-7.472-.606c-1.148-1.157-1.764-2.822-1.807-4.54-.042-1.717.493-3.432 1.574-4.676 2.092-2.404 5.727-2.521 7.675-.652l.016.015.017.014c.22.18.453.342.698.485l.37.218 1.643-1.568ZM93.82 54.585l.03-.533.014-.225v-.003c.013-.201.026-.394.026-.59 0-.811-.005-1.618-.01-2.422v-.002c-.01-1.602-.021-3.196.01-4.795v-.006c.009-.924.123-1.845.34-2.743.26-1.007.716-2.024 1.444-2.752.71-.71 1.705-1.176 3.142-1.059h.003c.124.01.225-.019.288-.044a.825.825 0 0 0 .13-.065l.054-.034a.191.191 0 0 1 .022-.013l.266-.14.034-.296c.02-.18.031-.359.032-.538V38.3a3.653 3.653 0 0 0-.059-.465v-.002a5.919 5.919 0 0 1-.022-.132l-.063-.425-.429-.053c-1.336-.166-2.509.044-3.545.6a6.584 6.584 0 0 0-1.728 1.37l-.189-1.974H91.5v17.367h2.32Zm5.043-15.693Zm-1.466-1.102c-1.403.208-2.54.97-3.523 2.183-.173.214-.342.441-.506.682 1.096-1.61 2.379-2.62 4.03-2.865Z" clip-rule="evenodd"/></svg>