<svg xmlns="http://www.w3.org/2000/svg" width="182" height="76" viewBox="0 0 182 76"><title>svg-home-partners-testimonials-spring</title><path fill="#B5B5B5" fill-rule="evenodd" d="m22.809 49.237 19.509-11.285V31.53L22.809 42.814v6.423Zm-3.183-24.123 6.95-4.02-4.917-2.844L2.15 29.534l12.174 7.042 7.115-4.111a.587.587 0 0 1 .531 0l1.768 1.024c.148.085.148.222 0 .307l-7.112 4.111.155.09 4.877 2.821 4.877-2.821 14.632-8.463-12.291-7.11-6.95 4.02a.59.59 0 0 1-.531 0l-1.77-1.024c-.145-.084-.145-.222 0-.306ZM1 37.952l12.176 7.043v-6.422L1 31.53v6.422Zm0 8.513 12.176 7.043v-5.853L1 40.614v5.851Zm14.476-6.562v6.422l5.033 2.912v-6.423l-4.877-2.821-.156-.09Zm7.333 17.847 19.509-11.285v-5.851L22.809 51.898v5.852Zm-7.333-8.764 5.033 2.912v5.852l-5.033-2.911v-5.853Zm55.355.446c-2.303 0-4.217-.423-5.742-1.267a11.795 11.795 0 0 1-3.862-3.435l2.878-2.29c.807 1.322 1.767 2.294 2.878 2.916 1.11.62 2.363.93 3.757.93 1.494 0 2.62-.325 3.378-.977.757-.651 1.135-1.486 1.135-2.504 0-.671-.16-1.215-.484-1.633-.323-.417-.752-.763-1.288-1.038a8.095 8.095 0 0 0-1.848-.657c-.697-.163-1.419-.325-2.166-.489a45.325 45.325 0 0 1-2.545-.625 7.932 7.932 0 0 1-2.271-1.008 5.133 5.133 0 0 1-1.621-1.71c-.415-.703-.621-1.613-.621-2.733 0-.875.186-1.7.56-2.473.373-.774.899-1.45 1.575-2.031.676-.58 1.48-1.039 2.408-1.374.93-.335 1.95-.504 3.06-.504 1.899 0 3.51.331 4.833.992 1.323.662 2.52 1.604 3.59 2.825l-2.727 2.168a9.303 9.303 0 0 0-1.03-1.206 6.132 6.132 0 0 0-1.227-.93 5.872 5.872 0 0 0-1.515-.612c-.556-.143-1.196-.213-1.924-.213-1.494 0-2.57.31-3.225.93-.658.621-.985 1.42-.985 2.398 0 .57.151 1.033.453 1.39.304.355.708.65 1.213.884a8.932 8.932 0 0 0 1.742.58c.656.153 1.347.3 2.075.444.869.183 1.742.402 2.62.656.879.254 1.666.62 2.364 1.1a5.713 5.713 0 0 1 1.711 1.862c.445.763.666 1.756.666 2.977 0 .856-.171 1.685-.514 2.489a6.12 6.12 0 0 1-1.515 2.122c-.666.61-1.484 1.104-2.454 1.481-.97.377-2.08.565-3.332.565Zm18.424.03a8.125 8.125 0 0 1-3.226-.64c-1-.428-1.803-1.06-2.408-1.894v8.794h-3.182V32.638h3.182v2.442c.626-.855 1.438-1.531 2.439-2.03.999-.5 2.064-.749 3.195-.749a8.013 8.013 0 0 1 5.71 2.351 8.368 8.368 0 0 1 1.803 2.703c.445 1.048.667 2.225.667 3.527 0 1.282-.227 2.453-.682 3.511-.454 1.06-1.06 1.965-1.817 2.718a7.989 7.989 0 0 1-2.62 1.74c-.99.407-2.01.612-3.06.612Zm-.454-3.022a5.23 5.23 0 0 0 3.817-1.619 5.547 5.547 0 0 0 1.137-1.786 5.84 5.84 0 0 0 .408-2.184c0-.773-.136-1.501-.408-2.182a5.35 5.35 0 0 0-1.137-1.772 5.304 5.304 0 0 0-3.817-1.603c-.768 0-1.48.147-2.136.443a5.505 5.505 0 0 0-1.712 1.19 5.388 5.388 0 0 0-1.136 1.772c-.272.682-.409 1.4-.409 2.152 0 .773.137 1.501.41 2.184a5.388 5.388 0 0 0 1.135 1.77 5.505 5.505 0 0 0 1.712 1.191 5.142 5.142 0 0 0 2.136.444Zm10.245-13.802h3.211v2.87c.343-1.039.91-1.818 1.697-2.336.788-.52 1.707-.78 2.757-.78a6.82 6.82 0 0 1 1.56.169c.474.111.874.27 1.196.473l-1.272 3.176c-.485-.326-1.171-.49-2.06-.49-1.171 0-2.101.317-2.787.948-.687.631-1.03 1.69-1.03 3.175v9.283h-3.272V32.638Zm11.817 16.49h3.303v-16.49h-3.303v16.49Zm-.666-21.437c0-.672.217-1.232.65-1.68.436-.447.986-.672 1.652-.672.687 0 1.247.225 1.682.672.434.448.652 1.008.652 1.68 0 .672-.218 1.231-.652 1.68-.435.446-.995.67-1.682.67-.686 0-1.243-.224-1.666-.67-.425-.449-.636-1.008-.636-1.68Zm6.037 4.947h3.212v2.29a6.338 6.338 0 0 1 2.166-1.909c.878-.478 1.892-.718 3.045-.718 1.03 0 1.963.169 2.802.504a5.786 5.786 0 0 1 2.12 1.436c.576.62 1.02 1.383 1.333 2.29.314.906.47 1.918.47 3.038v9.557h-3.302v-9.313c0-1.405-.354-2.524-1.06-3.359-.708-.834-1.748-1.252-3.12-1.252a4.47 4.47 0 0 0-1.743.336 4.04 4.04 0 0 0-1.394.962 4.425 4.425 0 0 0-.924 1.527c-.222.6-.333 1.267-.333 2v9.1h-3.272v-16.49Zm24.999 16.825a8.05 8.05 0 0 1-3.09-.612 7.984 7.984 0 0 1-2.62-1.74c-.758-.753-1.364-1.659-1.819-2.718-.454-1.058-.682-2.229-.682-3.511 0-1.302.223-2.479.667-3.527a8.38 8.38 0 0 1 1.803-2.703 7.97 7.97 0 0 1 2.636-1.74c1-.407 2.044-.61 3.135-.61 1.09 0 2.136.24 3.136.717a6.377 6.377 0 0 1 2.438 2v-2.381h3.273v15.176c0 1.22-.217 2.335-.652 3.343a7.81 7.81 0 0 1-1.787 2.596 8.058 8.058 0 0 1-2.666 1.68 9 9 0 0 1-3.287.595c-1.98 0-3.61-.296-4.893-.886a8.82 8.82 0 0 1-3.257-2.564l2.636-2.169c.646.896 1.383 1.552 2.212 1.97.827.417 1.908.625 3.24.625.789 0 1.501-.121 2.136-.365a4.698 4.698 0 0 0 1.637-1.039 4.702 4.702 0 0 0 1.06-1.603c.253-.621.378-1.308.378-2.062v-1.282a6.493 6.493 0 0 1-2.453 2.061 7.092 7.092 0 0 1-3.181.749Zm.423-3.023a5.14 5.14 0 0 0 2.136-.444 5.316 5.316 0 0 0 1.697-1.19 5.502 5.502 0 0 0 1.121-1.771c.273-.683.41-1.41.41-2.184 0-.753-.137-1.47-.41-2.152a5.502 5.502 0 0 0-1.121-1.771 5.316 5.316 0 0 0-1.697-1.191 5.14 5.14 0 0 0-2.136-.443 5.307 5.307 0 0 0-3.846 1.603 5.35 5.35 0 0 0-1.137 1.772 5.832 5.832 0 0 0-.408 2.182c0 .773.136 1.501.408 2.184a5.547 5.547 0 0 0 1.137 1.786 5.197 5.197 0 0 0 1.711 1.191 5.307 5.307 0 0 0 2.135.428Z"/></svg>