<svg xmlns="http://www.w3.org/2000/svg" width="182" height="76" viewBox="0 0 182 76"><g fill="none" fill-rule="evenodd"><path d="M-691-13158h1920V6656H-691z"/><path fill="#b5b5b5" d="M7.334 23.802v16.183h8.195v5.334H2V23.802zM64.1 45.32V23.803h5.333v21.516H64.1zM51.017 23.802v16.183h8.196v5.334h-13.53V23.802zm102.566 12.535v4.344h7.627v4.638h-12.619V23.802h12.62v4.508h-7.628v4.271h7.627v3.756zm-53.84-12.535h5.198L94.804 45.3h-.294l-5.446-11.213L83.525 45.3h-.298l-9.86-21.497h5.005l5.007 11.14 5.527-11.14h.332l5.422 11.14 5.083-11.14zm12.99.001 11.424 21.516h-4.994l-1.262-2.59H107.13l-1.33 2.59h-5.042l11.423-21.517.553.001zm-3.675 15.174h7.015l-3.414-7.01zm30.575-.946 4.919 7.288h-5.645l-4.2-6.221h-2.456v6.22h-4.772V23.803h8.369c3.98 0 7.538 3.359 7.538 7.648a7.643 7.643 0 0 1-3.753 6.581zm-4.426-3.23a3.245 3.245 0 1 0 0-6.491h-2.956v6.49h2.956zm29.24-8.502v-2.115h-.863v-.382h2.154v.382h-.863V26.3h-.428zm1.667 0v-2.497h.432l.824 1.174.824-1.174h.428V26.3h-.414v-1.862l-.842 1.177-.842-1.177V26.3h-.41zM23.985 24.467v20.187a11.46 11.46 0 0 1-2.314-1.628v-16.93a11.46 11.46 0 0 1 2.314-1.629zm4.245-1.283v22.753a11.363 11.363 0 0 1-2.313-.472v-21.81a11.387 11.387 0 0 1 2.313-.47zm1.932 22.777v-22.8c1.942.13 3.67.764 4.942 1.518l-2.6 3.856 2.013 3.014-2.012 3.015 2.012 3.014-2.013 3.014 2.584 3.862c-1.305.763-3.137 1.411-4.926 1.507zm6.715-20.004a11.402 11.402 0 0 1 3.909 8.604c0 3.432-1.515 6.508-3.91 8.604l-1.717-2.573 2.012-3.014-2.013-3.014 2.013-3.016-2.013-3.014 1.72-2.577zM19.74 28.38v12.363a11.375 11.375 0 0 1-1.818-6.182c0-2.278.67-4.398 1.818-6.181z"/></g></svg>