<?xml version="1.0" encoding="UTF-8"?>
<svg width="350px" height="134px" viewBox="0 0 350 134" version="1.1" xmlns="http://www.w3.org/2000/svg" xmlns:xlink="http://www.w3.org/1999/xlink">
    <!-- Generator: Sketch 61.2 (89653) - https://sketch.com -->
    <title>-g-svg-logo-interos</title>
    <desc>Created with Sketch.</desc>
    <g id="Page-1" stroke="none" stroke-width="1" fill="none" fill-rule="evenodd">
        <g id="revolve_assets" transform="translate(-34.000000, -4875.000000)">
            <g id="new" transform="translate(34.000000, 4875.000000)">
                <g id="interos">
                    <rect id="Rectangle" stroke="#FF0000" opacity="0" x="0.5" y="0.5" width="349" height="133"></rect>
                    <path d="M87.4411057,42.3438657 C90.3288244,41.374349 93.4410135,40.8986247 96.6773416,41.0180872 C110.186381,41.5167687 121.140794,52.4384461 121.677525,65.9459975 C122.266122,80.760409 110.384706,93 95.698472,93 C81.3619104,93 69.6983752,81.3364648 69.6983752,67.0001158 C69.6983752,66.191512 69.7366372,65.3916235 69.8097601,64.6017256 C69.8365435,64.311147 70.1602826,64.1523596 70.4038841,64.3132726 C71.8671933,65.280026 73.5269141,65.9729935 75.3114117,66.3173515 C75.6336628,66.3796336 75.8604715,66.6661735 75.8602589,66.9941639 L75.8602589,66.9941639 C75.8602589,77.9387985 84.7597892,86.8381163 95.698472,86.8381163 C106.869915,86.8381163 115.914203,77.5561785 115.524356,66.2992834 C115.157253,55.7000696 106.380587,47.2027155 95.7752085,47.1621153 C94.1896735,47.1559509 92.6472894,47.3381205 91.1676126,47.6854545 C90.8207037,47.7668676 90.4648671,47.5908623 90.3169206,47.2669107 C89.5842032,45.6633074 88.5502787,44.2269942 87.2865697,43.0293934 C87.061249,42.8157638 87.1467008,42.4429218 87.4411057,42.3438657 Z M200.456383,59.6947082 C206.329389,59.6947082 211.773435,63.4188769 211.773435,71.9668219 C211.773435,72.5399018 211.726245,73.064729 211.677779,73.733889 L211.677779,73.733889 L194.487297,73.733889 C194.725797,77.1713052 196.970502,79.6542969 200.69467,79.6542969 C203.108578,79.6542969 204.889249,78.7521638 205.707418,77.068848 L205.707418,77.068848 L210.752264,79.4402422 C208.975419,82.6206653 205.438309,84.5250504 200.69467,84.5250504 C193.580063,84.5250504 188.422982,79.702337 188.422982,72.347954 C188.422982,64.4698067 193.866815,59.6947082 200.456383,59.6947082 Z M179.547514,53.2257719 L179.547514,59.7942957 L185.874137,59.7942957 L185.874137,64.6714263 L179.547514,64.6714263 L179.547514,76.5517795 C179.547514,77.9041289 179.88507,79.5466319 182.783204,79.5466319 C183.506994,79.5466319 184.424644,79.4016614 185.149497,79.2078005 L185.149497,83.8927707 C184.086876,84.1338214 182.638234,84.4237624 180.899013,84.4237624 C174.138542,84.4237624 173.365862,80.0293708 173.365862,77.3724996 L173.365862,64.6714263 L168.19794,64.6714263 L168.19794,59.7942957 L169.84023,59.7942957 C172.786192,59.7942957 173.944893,58.7316748 173.944893,56.1236938 L173.944893,53.2257719 L179.547514,53.2257719 Z M244.75352,59.3113442 C251.996944,59.3113442 257.502634,64.4303756 257.502634,71.8194069 C257.502634,79.3045184 252.046046,84.4235498 244.75352,84.4235498 C237.5575,84.4235498 232.003557,79.2564783 232.003557,71.8194069 C232.003557,64.3814853 237.509672,59.3113442 244.75352,59.3113442 Z M270.014459,59.3113017 C276.53473,59.3113017 279.52852,62.7400026 279.866713,66.6994827 L273.926749,66.6994827 C273.685061,64.9611122 272.332499,63.8984912 270.063562,63.8984912 C268.180008,63.8984912 266.875699,64.8161417 266.875699,66.3615016 C266.875699,68.0520447 268.517777,68.4867436 270.835817,69.1148782 L273.105179,69.694335 C277.307623,70.756956 280.301625,72.6881245 280.301625,77.2283368 C280.301625,82.2023978 276.051779,84.4237199 270.932322,84.4237199 C264.122535,84.4237199 260.549076,81.1878169 260.211095,76.2137559 L266.150847,76.2137559 C266.489678,78.8219494 268.421059,79.8354675 270.883857,79.8354675 C272.767198,79.8354675 274.409488,79.1118904 274.409488,77.3724571 C274.409488,75.5380064 272.767198,74.765539 270.15943,74.088514 L267.890067,73.5096949 C264.654377,72.7363772 260.983988,71.4329181 260.983988,66.6994827 C260.983988,61.8703923 265.234046,59.3113017 270.014459,59.3113017 Z M138.010428,59.7942532 L138.010428,83.9409809 L131.828775,83.9409809 L131.828775,59.7942532 L138.010428,59.7942532 Z M156.55598,59.311493 C162.303571,59.311493 165.973323,62.981032 165.973323,69.3076549 L165.973323,83.9409596 L159.79167,83.9409596 L159.79167,70.5630739 C159.79167,66.6035939 157.522521,64.6713625 154.624599,64.6713625 C151.67885,64.6713625 149.070443,66.5547035 149.070443,70.8528023 L149.070443,83.9409596 L142.888791,83.9409596 L142.888791,59.794232 L148.539239,59.794232 L149.070443,62.643051 L149.456677,62.643051 C150.905532,60.7597099 152.934269,59.311493 156.55598,59.311493 Z M230.600659,59.311493 L230.600659,65.4929328 C229.731049,65.3479623 228.861438,65.299072 227.992678,65.299072 C222.679786,65.299072 221.279396,69.2115748 221.279396,72.6883158 L221.279396,83.9409596 L215.097744,83.9409596 L215.097744,59.794232 L220.700152,59.794232 L221.279396,63.222933 L221.665843,63.222933 C223.163588,60.8079626 224.805028,59.311493 228.861438,59.311493 L230.600659,59.311493 Z M244.75352,64.6714263 C240.79319,64.6714263 238.185422,67.8110365 238.185422,71.8194069 C238.185422,75.8758174 240.79319,79.06283 244.75352,79.06283 C248.761253,79.06283 251.369234,75.8758174 251.369234,71.8194069 C251.369234,67.8110365 248.713213,64.6714263 244.75352,64.6714263 Z M95.6981531,55.7994233 C101.838993,55.7994233 106.8409,60.7628559 106.902119,66.8903038 C106.904457,66.9287784 106.904457,66.967253 106.904457,67.0057276 L106.904457,67.0057276 L106.904457,76.5000195 C106.904457,76.769129 106.686364,76.9872224 106.417467,76.9872224 L106.417467,76.9872224 L101.227863,76.9872224 C100.958967,76.9872224 100.740873,76.769129 100.740873,76.5000195 L100.740873,76.5000195 L100.740873,66.9198506 C100.742999,66.908372 100.742999,66.8992316 100.740873,66.8903038 C100.679654,64.1617976 98.4426019,61.9608819 95.6981531,61.9608819 C92.9196937,61.9608819 90.6577714,64.2206786 90.6530949,66.9965872 L90.6530949,66.9965872 L90.6552206,66.9965872 L90.6552206,76.5544366 C90.6552206,76.8233335 90.4371271,77.0414269 90.1682302,77.0414269 L90.1682302,77.0414269 L84.9743753,77.0414269 C84.7052659,77.0414269 84.4871724,76.8233335 84.4871724,76.5544366 L84.4871724,76.5544366 L84.4871724,66.9965872 C84.492274,66.3078711 84.5551938,65.6333969 84.6752939,64.9786914 C84.7033528,64.8262811 84.7990078,64.6957652 84.931862,64.6158401 C87.716911,62.9389013 89.8534189,60.2966971 90.8775653,57.1504973 C90.9400599,56.9587621 91.0761026,56.7978492 91.2610357,56.7179241 C92.6225254,56.128264 94.1221835,55.7994233 95.6981531,55.7994233 Z M200.456383,64.5654618 C197.161174,64.5654618 194.964935,66.7619135 194.535125,69.6268876 L194.535125,69.6268876 L205.947831,69.6268876 C205.804561,66.666046 203.607472,64.5654618 200.456383,64.5654618 Z M77.8544109,47.8807183 C80.6503008,47.8807183 82.9168996,50.1473171 82.9168996,52.943207 C82.9168996,55.7390969 80.6503008,58.0056957 77.8544109,58.0056957 C75.058521,58.0056957 72.7919222,55.7390969 72.7919222,52.943207 C72.7919222,50.1473171 75.058521,47.8807183 77.8544109,47.8807183 Z M134.96677,47.4965678 C137.153869,47.4965678 138.926888,49.2695867 138.926888,51.4566855 C138.926888,53.6437844 137.153869,55.4165907 134.96677,55.4165907 C132.779884,55.4165907 131.006865,53.6437844 131.006865,51.4566855 C131.006865,49.2695867 132.779884,47.4965678 134.96677,47.4965678 Z" fill="#020202"></path>
                </g>
            </g>
        </g>
    </g>
</svg>