<svg width="350" height="134" viewBox="0 0 350 134" fill="none" xmlns="http://www.w3.org/2000/svg">
<g clip-path="url(#clip0_953_61)">
<path fill-rule="evenodd" clip-rule="evenodd" d="M122.549 52.5603L113.811 59.8995C113.209 60.4028 112.474 60.7217 111.695 60.818C110.916 60.9143 110.125 60.7841 109.418 60.4427C108.711 60.1014 108.118 59.5635 107.708 58.8934C107.299 58.2234 107.092 57.4496 107.111 56.6647L107.391 45.2571C107.391 45.213 107.402 45.1696 107.423 45.1312C107.445 45.0927 107.476 45.0605 107.514 45.0375C107.551 45.0146 107.594 45.0017 107.638 45.0002C107.682 44.9986 107.726 45.0085 107.765 45.0288L110.007 46.1087C110.121 46.163 110.217 46.2495 110.282 46.3576C110.347 46.4657 110.379 46.5906 110.374 46.7167L109.861 58.6887C109.857 58.765 109.876 58.8408 109.914 58.9066C109.953 58.9723 110.011 59.0251 110.08 59.0583C110.148 59.0915 110.226 59.1036 110.301 59.093C110.377 59.0825 110.448 59.0498 110.505 58.9991L119.547 51.1418C119.642 51.0589 119.76 51.0057 119.885 50.9888C120.01 50.9719 120.137 50.9921 120.25 51.0468L122.495 52.1268C122.535 52.145 122.569 52.1731 122.595 52.2084C122.621 52.2437 122.637 52.2851 122.643 52.3285C122.648 52.372 122.642 52.4161 122.626 52.4567C122.609 52.4973 122.583 52.533 122.549 52.5603ZM105.099 56.669L104.809 45.2613C104.809 45.2174 104.797 45.1744 104.775 45.1363C104.754 45.0982 104.722 45.0663 104.685 45.0436C104.647 45.021 104.605 45.0084 104.561 45.0069C104.517 45.0055 104.473 45.0154 104.435 45.0356L102.192 46.1156C102.079 46.1707 101.985 46.2575 101.92 46.3654C101.855 46.4734 101.823 46.5978 101.828 46.7235L102.341 58.6955C102.345 58.772 102.326 58.848 102.287 58.914C102.248 58.9799 102.191 59.0329 102.122 59.0663C102.053 59.0996 101.976 59.112 101.9 59.1017C101.824 59.0914 101.752 59.059 101.695 59.0085L92.6498 51.1511C92.5548 51.0682 92.4375 51.0151 92.3125 50.9982C92.1876 50.9813 92.0604 51.0015 91.9469 51.0562L89.7023 52.1362C89.6624 52.1544 89.6279 52.1825 89.602 52.2178C89.5761 52.2531 89.5597 52.2945 89.5543 52.3379C89.5489 52.3814 89.5547 52.4255 89.5711 52.4661C89.5876 52.5067 89.6142 52.5423 89.6484 52.5697L98.3933 59.9038C98.9962 60.4075 99.7314 60.7268 100.511 60.8234C101.291 60.9201 102.082 60.7899 102.789 60.4486C103.497 60.1073 104.091 59.5692 104.501 58.8989C104.91 58.2285 105.118 57.4544 105.099 56.669ZM97.1419 61.4706L88.0429 54.5854C88.0086 54.5583 87.968 54.5403 87.9248 54.5333C87.8816 54.5263 87.8373 54.5304 87.7962 54.5453C87.7551 54.5602 87.7184 54.5854 87.6898 54.6185C87.6611 54.6515 87.6414 54.6914 87.6325 54.7342L87.081 57.1609C87.0529 57.2846 87.0624 57.4139 87.108 57.5322C87.1537 57.6505 87.2336 57.7526 87.3375 57.8253L97.0162 64.89C97.0773 64.9356 97.1238 64.9979 97.1501 65.0695C97.1763 65.141 97.1812 65.2187 97.164 65.293C97.1469 65.3672 97.1085 65.4349 97.0536 65.4877C96.9986 65.5405 96.9294 65.5762 96.8546 65.5903L85.0724 67.7631C84.9482 67.7864 84.8335 67.8454 84.7424 67.9328C84.6513 68.0203 84.5876 68.1325 84.5593 68.2556L84.0078 70.6824C83.9971 70.7249 83.9974 70.7694 84.0088 70.8118C84.0202 70.8541 84.0423 70.8928 84.0729 70.9242C84.1035 70.9556 84.1417 70.9786 84.1837 70.9911C84.2258 71.0035 84.2703 71.005 84.3131 70.9953L95.495 68.7302C96.265 68.5733 96.9734 68.1975 97.5352 67.648C98.097 67.0984 98.4883 66.3985 98.6622 65.6321C98.8361 64.8657 98.7851 64.0654 98.5154 63.3272C98.2458 62.5891 97.7688 61.9444 97.1419 61.4706ZM84.878 73.5043L95.9368 70.6826C96.6991 70.4863 97.5019 70.5146 98.2486 70.764C98.9952 71.0134 99.6539 71.4733 100.145 72.0882C100.637 72.7032 100.94 73.4471 101.018 74.2304C101.097 75.0136 100.947 75.8029 100.588 76.5031L95.3417 86.6615C95.3227 86.7012 95.2937 86.7353 95.2577 86.7606C95.2216 86.7859 95.1797 86.8015 95.1359 86.8059C95.0921 86.8102 95.0479 86.8033 95.0075 86.7856C94.9672 86.768 94.9321 86.7403 94.9056 86.7051L93.3664 84.7581C93.2874 84.6594 93.2392 84.5396 93.2278 84.4137C93.2164 84.2878 93.2423 84.1614 93.3023 84.0501L98.9458 73.4838C98.9823 73.4166 98.9982 73.3401 98.9915 73.264C98.9849 73.1878 98.956 73.1152 98.9084 73.0554C98.8608 72.9955 98.7967 72.9509 98.724 72.9272C98.6513 72.9035 98.5732 72.9017 98.4995 72.922L86.9559 76.085C86.8338 76.1186 86.7045 76.1156 86.5841 76.0764C86.4637 76.0371 86.3575 75.9634 86.2786 75.8644L84.7395 73.9199C84.7111 73.8863 84.6918 73.846 84.6835 73.8028C84.6752 73.7596 84.6782 73.715 84.6921 73.6732C84.706 73.6315 84.7304 73.594 84.763 73.5645C84.7955 73.5349 84.8351 73.5142 84.878 73.5043ZM102.383 77.3693L97.6961 87.7714C97.6773 87.8108 97.6689 87.8544 97.6716 87.898C97.6744 87.9416 97.6883 87.9838 97.7119 88.0205C97.7356 88.0572 97.7682 88.0873 97.8067 88.1079C97.8452 88.1285 97.8884 88.1389 97.9321 88.1382H100.42C100.547 88.1382 100.67 88.1013 100.776 88.0321C100.882 87.9628 100.965 87.8642 101.016 87.7483L105.748 76.7408C105.779 76.671 105.829 76.6115 105.892 76.5697C105.956 76.528 106.03 76.5057 106.106 76.5057C106.182 76.5057 106.257 76.528 106.32 76.5697C106.384 76.6115 106.434 76.671 106.464 76.7408L111.207 87.7303C111.256 87.8466 111.339 87.9457 111.444 88.0151C111.55 88.0845 111.674 88.1211 111.8 88.1202H114.288C114.332 88.1214 114.375 88.1113 114.414 88.0909C114.453 88.0705 114.486 88.0405 114.51 88.0037C114.534 87.9668 114.548 87.9245 114.551 87.8807C114.554 87.8369 114.546 87.793 114.527 87.7534L109.822 77.3667C109.498 76.6519 108.974 76.0458 108.315 75.6208C107.655 75.1957 106.886 74.9698 106.102 74.9701C105.317 74.9704 104.549 75.1968 103.889 75.6223C103.23 76.0478 102.707 76.6543 102.383 77.3693ZM116.842 86.6486L111.632 76.4979C111.271 75.7993 111.12 75.0113 111.196 74.2288C111.272 73.4462 111.573 72.7022 112.062 72.0862C112.55 71.4703 113.206 71.0084 113.951 70.7562C114.696 70.504 115.497 70.4722 116.26 70.6645L127.319 73.4863C127.362 73.4962 127.401 73.5169 127.434 73.5464C127.466 73.576 127.491 73.6135 127.505 73.6552C127.519 73.697 127.521 73.7416 127.513 73.7847C127.505 73.8279 127.486 73.8683 127.457 73.9019L125.918 75.8489C125.839 75.9472 125.732 76.0203 125.612 76.0595C125.492 76.0986 125.363 76.1021 125.241 76.0695L113.682 72.9143C113.608 72.8939 113.53 72.8958 113.457 72.9195C113.385 72.9432 113.32 72.9877 113.273 73.0476C113.225 73.1075 113.196 73.18 113.19 73.2562C113.183 73.3324 113.199 73.4088 113.235 73.4761L118.879 84.0398C118.939 84.151 118.965 84.2775 118.953 84.4034C118.942 84.5293 118.894 84.6491 118.815 84.7478L117.276 86.6922C117.249 86.7268 117.214 86.754 117.174 86.7712C117.134 86.7885 117.09 86.7953 117.047 86.7909C117.003 86.7865 116.962 86.7712 116.926 86.7463C116.89 86.7214 116.861 86.6878 116.842 86.6486ZM116.718 68.722L127.905 70.9795C127.948 70.9891 127.993 70.9877 128.035 70.9752C128.077 70.9628 128.115 70.9397 128.145 70.9084C128.176 70.877 128.198 70.8382 128.21 70.7959C128.221 70.7536 128.221 70.709 128.211 70.6665L127.654 68.2398C127.626 68.1165 127.562 68.0041 127.471 67.9166C127.38 67.8291 127.265 67.7702 127.141 67.7472L115.356 65.5822C115.281 65.5676 115.213 65.5317 115.158 65.4787C115.103 65.4257 115.065 65.358 115.048 65.2838C115.032 65.2096 115.037 65.1321 115.063 65.0608C115.089 64.9894 115.136 64.9272 115.197 64.8819L124.871 57.812C124.974 57.7386 125.053 57.6364 125.099 57.5183C125.144 57.4002 125.154 57.2713 125.127 57.1476L124.573 54.7183C124.564 54.6755 124.544 54.6357 124.516 54.6026C124.487 54.5695 124.45 54.5444 124.409 54.5295C124.368 54.5145 124.324 54.5104 124.281 54.5174C124.238 54.5244 124.197 54.5424 124.163 54.5695L115.066 61.4624C114.439 61.9366 113.962 62.5816 113.693 63.3202C113.424 64.0587 113.373 64.8592 113.548 65.6258C113.722 66.3923 114.114 67.0921 114.676 67.6414C115.239 68.1906 115.948 68.5658 116.718 68.722ZM139.836 52.9037H161.536V56.1112H152.429V80.9795H148.939V56.1112H139.834L139.836 52.9037ZM178.946 80.9815V77.9729H177.919C177.01 77.9729 176.555 77.4783 176.555 76.489V67.6642C176.56 65.285 175.847 63.4604 174.417 62.1902C172.987 60.9201 170.962 60.285 168.342 60.285C165.887 60.285 163.892 60.8467 162.355 61.97C160.818 63.0933 159.929 64.6571 159.688 66.6614H162.977C163.08 66.1505 163.285 65.6655 163.579 65.2351C163.872 64.8046 164.25 64.4375 164.688 64.1553C165.61 63.5266 166.78 63.2123 168.199 63.2123C169.801 63.2152 171.051 63.5901 171.947 64.3371C172.844 65.084 173.292 66.1268 173.292 67.4654V68.8681H167.275C164.602 68.8667 162.564 69.4148 161.16 70.5124C159.755 71.6101 159.053 73.1882 159.053 75.2466C159.055 77.0912 159.743 78.5481 161.119 79.6173C162.495 80.6864 164.319 81.221 166.593 81.221C169.588 81.2224 171.875 80.0863 173.453 77.8126C173.477 78.856 173.77 79.6451 174.334 80.1797C174.897 80.7142 175.833 80.9815 177.141 80.9815H178.946ZM166.954 71.635H173.292V72.6486C173.291 74.3863 172.716 75.7833 171.567 76.8397C170.418 77.896 168.84 78.4241 166.835 78.4241C165.472 78.4255 164.388 78.1184 163.584 77.5025C163.201 77.2226 162.891 76.8537 162.682 76.4276C162.473 76.0015 162.37 75.5309 162.383 75.0563C162.384 72.7755 163.908 71.635 166.954 71.635ZM180.655 52.9037H183.944V71.5068L194.34 60.5246H198.27L190.41 68.9067L198.832 80.9795H194.853L188.034 71.2652L183.944 75.5568V80.9709H180.655V52.9037ZM202.812 61.5894C201.344 62.4598 200.156 63.7333 199.391 65.2587C198.575 66.841 198.168 68.6728 198.17 70.7541C198.133 72.6551 198.567 74.5357 199.434 76.2281C200.235 77.7759 201.468 79.058 202.983 79.9188C204.507 80.787 206.285 81.221 208.318 81.221C210.645 81.2225 212.61 80.561 214.213 79.2367C215.797 77.9476 216.865 76.1324 217.222 74.1219H213.886C213.587 75.359 212.854 76.4478 211.821 77.1903C210.791 77.9259 209.541 78.2937 208.07 78.2937C206.171 78.2937 204.634 77.6922 203.458 76.489C202.282 75.2859 201.667 73.6814 201.612 71.6757V71.3956H217.502C217.556 70.7541 217.583 70.2858 217.583 69.9907C217.528 68.0107 217.087 66.2865 216.26 64.8182C215.47 63.3872 214.281 62.2165 212.838 61.4483C211.304 60.6518 209.595 60.2519 207.867 60.285C206.095 60.2516 204.347 60.7026 202.812 61.5894ZM212.227 64.6172C213.363 65.5809 214.011 66.9308 214.171 68.6671H201.818C201.874 67.9058 202.08 67.1632 202.425 66.4818C202.769 65.8003 203.244 65.1936 203.823 64.6963C204.951 63.6993 206.409 63.1567 207.914 63.1739C209.653 63.1724 211.091 63.6536 212.227 64.6172ZM223.909 52.9037V69.1868C223.909 75.07 226.302 78.0115 231.087 78.0115C235.927 78.0115 238.35 75.07 238.357 69.1868V52.9037H241.847V68.9858C241.847 72.9972 240.931 76.0393 239.099 78.112C237.267 80.1847 234.6 81.2204 231.098 81.219C227.595 81.219 224.942 80.1833 223.137 78.112C221.332 76.0407 220.429 72.9986 220.428 68.9858V52.9037H223.909ZM264.557 65.1373C263.772 63.6184 262.559 62.3634 261.067 61.5279C259.512 60.6804 257.764 60.2515 255.993 60.2834C253.025 60.2834 250.686 61.4602 248.975 63.8137L248.533 60.525H245.687V89.0006H248.975V77.8516C249.658 78.9081 250.614 79.76 251.742 80.317C252.92 80.9186 254.337 81.2194 255.993 81.2194C257.767 81.2453 259.514 80.7877 261.048 79.8958C262.54 79.0196 263.756 77.7414 264.557 76.2072C265.399 74.6306 265.821 72.8123 265.821 70.7524C265.821 68.5871 265.399 66.7154 264.557 65.1373ZM262.451 70.7524C262.449 72.972 261.828 74.7831 260.586 76.1858V76.1837C259.342 77.5893 257.702 78.2921 255.668 78.2921C254.431 78.3123 253.213 77.9785 252.159 77.3298C251.119 76.6773 250.29 75.7369 249.773 74.6227C249.195 73.3868 248.907 72.0353 248.93 70.6712C248.907 69.3332 249.195 68.008 249.773 66.8009C250.296 65.7064 251.125 64.7869 252.159 64.1537C253.217 63.5169 254.433 63.1901 255.668 63.2107C257.702 63.2121 259.342 63.9142 260.586 65.3169C261.831 66.7211 262.452 68.5329 262.451 70.7524Z" fill="#1F1F1F"/>
</g>
<defs>
<clipPath id="clip0_953_61">
<rect width="181.821" height="44.0006" fill="white" transform="translate(84 45)"/>
</clipPath>
</defs>
</svg>
