<svg width="350" height="134" viewBox="0 0 350 134" fill="none" xmlns="http://www.w3.org/2000/svg">
<path d="M125.547 45.3735V52.6669H118.52V45.3735H125.547ZM118.787 56.8802H125.347V83.7335H118.787V56.8802Z" fill="#1F1F1F"/>
<path d="M156.28 56.8802V85.2269C156.28 90.8136 152.227 94.6002 146.213 94.6002H132.96V89.3869H145.32C147.933 89.3869 149.787 87.4135 149.787 84.6002V80.7602C148.453 82.8402 145.36 84.1602 142.013 84.1602C133.92 84.1602 129.227 78.5202 129.227 70.3069C129.227 62.0935 133.92 56.4535 141.907 56.4535C145.253 56.4535 148.187 57.8402 149.733 59.9202V56.8802H156.28ZM150.187 70.3069C150.187 65.3469 147.32 62.1069 142.893 62.1069C138.467 62.1069 135.707 65.3602 135.707 70.3069C135.707 75.2535 138.533 78.5069 142.893 78.5069C147.333 78.4935 150.2 75.2802 150.187 70.3069Z" fill="#1F1F1F"/>
<path d="M161.76 45.3735H168.253V61.0269C169.747 58.0935 172.84 56.4402 176.667 56.4402C182.693 56.4402 186.627 60.8135 186.627 67.0935V83.7335H180.133V68.4935C180.133 64.8135 177.84 62.2669 174.493 62.2669C170.867 62.2669 168.253 65.1335 168.253 69.0669V83.7202H161.76V45.3735Z" fill="#1F1F1F"/>
<path d="M191.907 45.3735H198.413V83.7335H191.907V45.3735Z" fill="#1F1F1F"/>
<path d="M210.44 45.3735V52.6669H203.413V45.3735H210.44ZM203.667 56.8802H210.227V83.7335H203.667V56.8802Z" fill="#1F1F1F"/>
<path d="M215.32 56.8802H221.88V61.0402C223.373 58.1069 226.413 56.4535 230.24 56.4535C236.307 56.4535 240.253 60.8269 240.253 67.1069V83.7335H233.707V68.4935C233.707 64.8135 231.48 62.2669 228.12 62.2669C224.44 62.2669 221.88 65.1335 221.88 69.0669V83.7202H215.32V56.8802Z" fill="#1F1F1F"/>
<path d="M270.12 74.7869C269.107 80.4802 264.107 84.1602 257.493 84.1602C248.693 84.1602 243.8 77.2402 243.8 70.1869C243.8 63.1335 248.173 56.4402 256.96 56.4402C265.96 56.4402 270.013 63.0002 270.013 69.3869C270.013 70.2935 269.96 71.0935 269.907 71.6135H250.093C250.573 75.9335 253.347 78.6935 257.493 78.6935C260.853 78.6935 263.04 77.3069 263.72 74.7602L270.12 74.7869ZM250.253 67.3202H263.467C263.2 63.9069 260.853 61.3469 256.973 61.3469C253.28 61.3602 250.947 63.2802 250.253 67.3202Z" fill="#1F1F1F"/>
<path d="M105.107 70.1202V83.7602H112.773V67.9735H107.253C106.067 67.9735 105.107 68.9335 105.107 70.1202Z" fill="#1F1F1F"/>
<path d="M105.093 45.4002V59.5202C105.093 60.3069 104.453 60.9469 103.667 60.9602H89.7199C88.5332 60.9602 87.5732 61.9202 87.5732 63.1069V65.8136C87.5732 66.6002 86.9332 67.2402 86.1465 67.2402H80.5999C80.1999 67.2402 79.8799 67.5602 79.8799 67.9602V83.7602H87.5465V68.6936C87.5465 67.9069 88.1865 67.2669 88.9732 67.2536H102.92C104.107 67.2536 105.067 66.2936 105.067 65.1069V62.3869C105.067 61.6002 105.707 60.9469 106.507 60.9469H112.04C112.44 60.9469 112.76 60.6269 112.76 60.2402V45.4002H105.093Z" fill="#1F1F1F"/>
<path d="M87.5465 45.4002H79.8799V60.2269H85.3999C86.5865 60.2269 87.5465 59.2669 87.5465 58.0802V45.4002Z" fill="#1F1F1F"/>
</svg>
