<svg xmlns="http://www.w3.org/2000/svg" width="350" height="134" viewBox="0 0 350 134">
    <path fill="#1F1F1F" fill-rule="nonzero" d="M271.171 45H274v24.788c-.889 4.955-4.332 9.261-8.773 11.416-2.921 1.417-6.271 1.634-9.439 1.174-4.162-.669-7.84-3.35-10.19-6.847-2.543-3.724-3.169-8.609-2.066-12.956.97-3.917 3.65-7.25 6.967-9.397 3.62-2.336 8.202-2.76 12.312-1.737 3.342.862 6.154 3.091 8.369 5.715-.017-4.052-.005-8.104-.009-12.156zm-15.557 9.372c-3.73.908-6.938 3.707-8.494 7.254-1.107 2.468-1.252 5.296-.755 7.936.646 3.239 2.74 6.047 5.398 7.886 3.37 2.299 7.856 2.656 11.606 1.145 2.804-1.186 5.144-3.436 6.521-6.178 1.483-3.042 1.67-6.688.59-9.894-1.078-3.095-3.398-5.69-6.259-7.192-2.642-1.33-5.742-1.638-8.607-.957zM76 49.618c1.467-.406 2.99-.065 4.4.395 3.738 1.268 6.858 4.302 8.28 8.034.764 1.986.837 4.15.86 6.256-.003 2.943.005 5.891-.015 8.834.973-4.474 4.27-8.411 8.671-9.676 3.382-1.174 7.12.152 9.77 2.39 2.264 1.81 3.59 4.507 4.32 7.286.009-3.768-.117-7.545.07-11.31.262-6.835 6.606-12.82 13.362-12.397.202 7.007.016 14.02.097 21.027.113 5.086-3.075 9.947-7.56 12.102-5.964 3.022-13.884.792-17.36-5.02-2.844 4.708-8.647 7.208-13.96 6.124C81.24 82.731 76.61 77.633 76 71.828v-22.21zm104.136 17.546c-.445-7.39 5.128-14.454 12.211-15.912 3.471-.669 7.197-.365 10.377 1.277 4.744 2.492 8.336 7.48 8.534 12.993.024 5.58.004 11.154.008 16.733h-3.03c-.004-1.942-.008-3.883.008-5.825-3.108 3.748-7.698 6.437-12.64 6.15-8.138.32-15.61-7.152-15.468-15.416zM192.96 54.32c-3.204.657-6.012 2.783-7.802 5.526-2.118 3.226-2.53 7.455-1.326 11.104 1.835 5.538 7.714 9.336 13.444 8.465 4.712-.509 8.87-4.076 10.353-8.612.735-2.295.808-4.8.266-7.144-.897-3.801-3.689-7.024-7.176-8.612-2.429-1.051-5.18-1.29-7.759-.727zm24.302 1.56c2.489-3.046 6.32-4.98 10.255-4.77 3.787-.009 7.367 2.003 9.727 4.946 2.513 2.94 3.798 6.832 3.822 10.703-.004 5.168.008 10.333-.004 15.501-1.01-.004-2.016-.004-3.022-.004a4973.76 4973.76 0 0 1 0-15.53c.004-3.715-1.625-7.406-4.413-9.824-2.683-2.52-6.829-3.16-10.179-1.728-4.384 1.925-7.188 6.79-7.136 11.589.008 5.164.008 10.329 0 15.493-1.01 0-2.016 0-3.022.004-.012-5.172 0-10.345-.008-15.518.028-3.945 1.37-7.906 3.98-10.862zm-82.57 15.39c.004-6.638-.012-13.272.008-19.91.974 0 1.948.004 2.921.004.017 6.478-.02 12.952.017 19.43-.02 3.974 3.01 7.612 6.796 8.44 2.122.39 4.429.144 6.276-1.046 2.469-1.523 4.17-4.34 4.182-7.295.004-6.507.004-13.014 0-19.525 1.01-.004 2.024-.004 3.035 0v19.488c-.061 4.586 4.065 8.707 8.578 8.543 4.865.205 9.096-4.483 8.7-9.372-.008-6.22-.004-12.443-.004-18.663.978 0 1.952 0 2.93.004-.004 6.647.008 13.297-.004 19.944-.093 5.34-4.385 10.21-9.565 10.998-4.683.874-9.811-1.474-12.15-5.71-2.599 4.761-8.668 7.02-13.727 5.34-4.445-1.457-7.949-5.854-7.993-10.67z"/>
</svg>
