<svg width="350" height="134" viewBox="0 0 350 134" fill="none" xmlns="http://www.w3.org/2000/svg">
<path fill-rule="evenodd" clip-rule="evenodd" d="M158.2 58.0873H160.592L160.593 58.0771H160.957L160.875 58.4167C160.05 61.7404 156.767 64.134 153.09 64.134C148.147 64.134 144.558 60.4265 144.579 55.3339C144.582 50.2549 148.147 46.5576 153.09 46.5576C156.798 46.5576 160.071 49.0768 160.899 52.5533L160.984 52.9132H158.227C157.916 51.7919 157.244 50.8043 156.316 50.1029C155.388 49.4015 154.254 49.0254 153.09 49.0326C149.722 49.0326 147.295 51.6299 147.295 55.3407C147.295 59.0515 149.746 61.6725 153.09 61.6725C154.207 61.6728 155.297 61.3287 156.211 60.6871C157.126 60.0456 157.82 59.1377 158.2 58.0873ZM174.401 55.3373C174.401 50.2209 178.092 46.5576 183.269 46.5576C188.447 46.5576 192.137 50.2209 192.137 55.3373C192.167 56.5063 191.961 57.6693 191.533 58.7575C191.105 59.8457 190.463 60.8369 189.645 61.6726C188.066 63.2377 185.846 64.1374 183.269 64.1374C180.692 64.1374 178.472 63.2377 176.893 61.6726C176.075 60.8369 175.433 59.8457 175.005 58.7575C174.577 57.6693 174.372 56.5063 174.401 55.3373ZM177.117 55.3373C177.117 59.0312 179.681 61.6692 183.269 61.6692C186.854 61.6692 189.397 59.0312 189.397 55.3373C189.397 51.6435 186.858 49.0293 183.269 49.0293C179.681 49.0293 177.117 51.6435 177.117 55.3373ZM166.229 47.4563V61.108H173.838H174.177V61.4475V63.2401V63.5796H173.838H163.853H163.513V63.2401V47.4563V47.1168H163.853H165.89H166.229V47.4563ZM216.877 47.1168C219.671 47.1168 222.028 47.9113 223.691 49.3508C224.541 50.0946 225.215 51.0167 225.667 52.0514C226.119 53.086 226.337 54.2077 226.305 55.3363C226.336 56.466 226.118 57.5885 225.667 58.6246C225.216 59.6606 224.542 60.5849 223.695 61.3321C222.028 62.775 219.671 63.5796 216.877 63.5796H211.479V47.1168H216.877ZM216.877 61.108C218.935 61.108 220.619 60.5444 221.78 59.553C222.381 59.0317 222.857 58.3824 223.175 57.6527C223.492 56.923 223.642 56.1315 223.613 55.3363C223.64 54.5438 223.488 53.7553 223.17 53.029C222.851 52.3028 222.374 51.6572 221.773 51.14C220.612 50.152 218.914 49.5851 216.877 49.5851H214.195V61.108H216.877ZM205.84 47.1168H205.5V57.1731C205.5 59.8348 203.803 61.6682 201.426 61.6682C199.05 61.6682 197.335 59.8314 197.335 57.1731V47.1168H194.599V57.1731C194.599 61.2031 197.474 64.1364 201.43 64.1364C205.385 64.1364 208.22 61.1997 208.22 57.1731V47.1168H205.843H205.84ZM206.223 70.2048H205.884V70.5443V72.3335V72.673H206.223H211.102V86.3281V86.6676H211.442H213.479H213.818V86.3281V72.673H218.717H219.057V72.3335V70.5443V70.2048H218.717H206.223ZM296.849 78.2712C297.483 78.6117 298.017 79.1113 298.4 79.7209C298.818 80.4353 299.025 81.2533 298.998 82.0804C299.021 82.8027 298.875 83.5204 298.572 84.1764C298.269 84.8324 297.818 85.4086 297.253 85.8592C296.125 86.7419 294.509 87.2172 292.523 87.2172C290.394 87.2172 288.636 86.6604 287.403 85.6113C286.776 85.0647 286.278 84.3847 285.947 83.6211C285.615 82.8575 285.459 82.0296 285.489 81.1977V80.8582H288.181V81.1977C288.161 81.6886 288.252 82.1776 288.447 82.6284C288.642 83.0792 288.937 83.4803 289.308 83.8017C290.031 84.4163 291.118 84.7558 292.544 84.7558C293.786 84.7558 294.727 84.4842 295.348 84.0394C295.643 83.8354 295.883 83.5609 296.046 83.2408C296.208 82.9206 296.288 82.5649 296.278 82.2061C296.293 81.8082 296.181 81.4159 295.959 81.0857C295.73 80.7805 295.426 80.5396 295.076 80.3863C294.285 80.0026 293.199 79.8261 291.997 79.6326C290.578 79.4187 289.023 79.1063 287.824 78.4002C287.21 78.0551 286.691 77.5613 286.317 76.964C285.913 76.2741 285.711 75.4849 285.733 74.6859C285.713 73.9826 285.856 73.2841 286.15 72.6451C286.444 72.0061 286.883 71.4438 287.431 71.0023C288.527 70.1195 290.065 69.6442 292.058 69.6442C294.051 69.6442 295.704 70.1942 296.862 71.1856C298.02 72.177 298.658 73.6131 298.658 75.365V75.7045H296.007V75.365C296.03 74.9173 295.951 74.4702 295.774 74.0581C295.597 73.646 295.328 73.2801 294.988 72.9884C294.34 72.4452 293.355 72.1294 292.051 72.1294C290.829 72.1294 289.926 72.3807 289.335 72.8085C289.056 73.008 288.83 73.2736 288.677 73.5817C288.525 73.8897 288.451 74.2305 288.463 74.5739C288.449 74.9543 288.554 75.3295 288.765 75.6468C288.986 75.9423 289.279 76.1761 289.617 76.3258C290.377 76.6992 291.43 76.8758 292.608 77.0591C294.031 77.2934 295.62 77.5718 296.849 78.2712ZM244.51 84.196V79.3885H252.05H252.39V79.049V77.2598V76.9203H252.05H244.51V72.673H252.947H253.286V72.3335V70.5443V70.2048H252.947H242.113H241.773V70.5443V86.3281V86.6676H242.113H253.171H253.51V86.3281V84.5355V84.196H253.171H244.51ZM204.815 75.3348C204.815 78.0984 202.747 80.0302 199.902 80.3358L205.151 86.0972L205.67 86.6676H202.173L202.071 86.5522L196.71 80.4885H194.293V86.6812H191.577V70.2184H198.771C200.543 70.2184 202.048 70.7039 203.117 71.6002C203.661 72.0564 204.096 72.6287 204.389 73.2749C204.683 73.9212 204.828 74.6251 204.815 75.3348ZM198.775 72.6731H194.293V78.0169H198.775C199.655 78.0673 200.525 77.8065 201.233 77.2802C201.502 77.0343 201.716 76.7351 201.863 76.4016C202.01 76.0681 202.086 75.7077 202.086 75.3433C202.086 74.9789 202.01 74.6185 201.863 74.285C201.716 73.9515 201.502 73.6523 201.233 73.4064C200.522 72.8856 199.654 72.6266 198.775 72.6731ZM154.367 70.4255L154.282 70.2048H151.036L150.955 70.4255L145 86.2058L144.827 86.6676H147.509L147.59 86.4469L148.85 83.1299H156.421L157.68 86.4469L157.762 86.6676H160.41L160.24 86.2092L154.367 70.4255ZM155.572 80.7703H149.705L152.645 73.0397L155.572 80.7703ZM234.742 70.2048H234.97H238.497V86.6676H235.781V74.3672L230.919 86.4571L230.834 86.671H228.427L228.342 86.4571L223.491 74.3977V86.6676H220.751V70.2048H224.543L224.628 70.4153L229.633 82.8277L234.657 70.4153L234.742 70.2048ZM183.551 70.4255L183.466 70.2048H180.22L180.139 70.4255L174.184 86.2058L174.011 86.6676H176.683L176.768 86.4469L178.027 83.1299H185.595L186.854 86.4469L186.939 86.6676H189.608L189.438 86.2092L183.551 70.4255ZM184.756 80.7703H178.89L181.833 73.0397L184.756 80.7703ZM271.599 70.2048H271.939H284.433H284.772V70.5443V72.3335V72.673H284.433H279.534V86.3281V86.6676H279.194H277.157H276.818V86.3281V72.673H271.939H271.599V72.3335V70.5443V70.2048ZM267.511 70.2048H267.172V70.5443V82.7123L260.127 70.3746L260.029 70.2048H259.832H256.898H256.559V70.5443V86.3281V86.6676H256.898H258.935H259.275V86.3281V74.1159L266.344 86.4944L266.439 86.6676H266.636H269.549H269.888V86.3281V70.5443V70.2048H269.549H267.511ZM174.637 73.2869C174.924 73.9467 175.057 74.663 175.026 75.3817L175.029 75.3952C175.048 76.114 174.905 76.8277 174.611 77.4839C174.317 78.1402 173.88 78.7223 173.332 79.1875C172.259 80.0872 170.762 80.5659 169.02 80.5659H165.061V86.6771H162.393V70.2143H169.02C170.803 70.2143 172.31 70.6761 173.373 71.5724C173.919 72.0408 174.351 72.627 174.637 73.2869ZM169.02 78.0604C169.904 78.1096 170.776 77.8464 171.485 77.3169C171.763 77.0788 171.984 76.7806 172.131 76.4448C172.277 76.109 172.345 75.7443 172.33 75.3783C172.345 75.0093 172.277 74.6416 172.131 74.3026C171.984 73.9635 171.764 73.6616 171.485 73.4193C170.778 72.8859 169.904 72.6212 169.02 72.6724H165.061V78.0604H169.02ZM70.4165 46.5945V55.7239L70.4403 55.7408C73.3194 55.748 76.0786 56.8949 78.1145 58.9308C80.1504 60.9667 81.2974 63.7259 81.3045 66.6051H90.4237C90.4183 61.3002 88.3088 56.2141 84.558 52.4626C80.8072 48.7112 75.7214 46.6008 70.4165 46.5945ZM56.2823 80.7588C60.0384 84.5116 65.1308 86.6197 70.4404 86.6197V77.453C69.0125 77.457 67.5979 77.1795 66.2773 76.6364C64.9568 76.0933 63.7563 75.2952 62.7444 74.2877C61.7326 73.2803 60.9292 72.0833 60.3803 70.7651C59.8314 69.447 59.5478 68.0335 59.5455 66.6057H50.4094C50.4139 71.9153 52.5263 77.0059 56.2823 80.7588ZM100.704 46.6045C98.6875 54.2128 95.564 66.5506 90.6818 86.6189H99.9776C103.132 73.7176 107.28 57.0647 109.918 46.9881C112.567 56.9934 116.709 73.6769 119.859 86.6189H129.209C124.31 66.4861 121.193 54.1789 119.187 46.6045H100.704Z" fill="#1F1F1F"/>
</svg>
