<svg width="350" height="134" viewBox="0 0 350 134" fill="none" xmlns="http://www.w3.org/2000/svg">
<path d="M179.419 54.792C179.419 56.543 178.009 57.9532 176.259 57.9532C175.844 57.9541 175.433 57.8729 175.049 57.7143C174.666 57.5558 174.317 57.3229 174.024 57.0292C173.73 56.7355 173.497 56.3867 173.339 56.0028C173.181 55.6188 173.099 55.2074 173.1 54.792C173.1 53.041 174.462 51.6308 176.259 51.6308C178.059 51.6797 179.419 53.0898 179.419 54.792ZM166.395 61.1643V61.9427C166.395 61.9427 164.889 59.9963 161.681 59.9963C156.384 59.9963 152.252 64.0335 152.252 69.6264C152.252 75.1715 156.336 79.2566 161.681 79.2566C164.938 79.2566 166.395 77.2624 166.395 77.2624V78.0896C166.395 78.4782 166.687 78.7691 167.076 78.7691H171.011V60.4815H167.076C166.896 60.4859 166.725 60.5595 166.598 60.6868C166.471 60.8142 166.398 60.9856 166.395 61.1654V61.1643ZM166.395 72.8853C165.667 73.9557 164.208 74.8795 162.459 74.8795C159.348 74.8795 156.966 72.9342 156.966 69.6264C156.966 66.3187 159.348 64.3733 162.459 64.3733C164.16 64.3733 165.716 65.346 166.395 66.3675V72.8853ZM173.928 60.4826H178.592V78.7713H173.928V60.4815V60.4826ZM243.622 59.9952C240.413 59.9952 238.906 61.9416 238.906 61.9416V51.6797H234.241V78.7713H238.178C238.358 78.7674 238.528 78.6943 238.655 78.5672C238.782 78.4401 238.854 78.269 238.857 78.0896V77.2634C238.857 77.2634 240.365 79.2576 243.572 79.2576C248.869 79.2576 253 75.1726 253 69.6286C253 64.0824 248.869 59.9952 243.62 59.9952H243.622ZM242.843 74.8307C241.044 74.8307 239.635 73.9079 238.905 72.8365V66.3187C239.635 65.346 241.191 64.3245 242.843 64.3245C245.954 64.3245 248.335 66.2698 248.335 69.5786C248.335 72.8853 245.954 74.8307 242.843 74.8307ZM231.811 67.9253V78.8191H227.145V68.4605C227.145 65.4458 226.173 64.2289 223.55 64.2289C222.142 64.2289 220.683 64.9584 219.758 66.0288V78.7735H215.093V60.4815H218.786C219.175 60.4815 219.467 60.8224 219.467 61.1632V61.9416C220.827 60.5304 222.626 59.9952 224.424 59.9952C226.464 59.9952 228.166 60.5792 229.527 61.7462C231.179 63.1086 231.811 64.8596 231.811 67.9231V67.9253ZM203.768 59.9952C200.561 59.9952 199.055 61.9416 199.055 61.9416V51.6797H194.389V78.7713H198.325C198.504 78.7677 198.675 78.6947 198.802 78.5676C198.929 78.4406 199.002 78.2692 199.006 78.0896V77.2634C199.006 77.2634 200.514 79.2576 203.72 79.2576C209.018 79.2576 213.148 75.1726 213.148 69.6286C213.197 64.0824 209.065 59.9952 203.768 59.9952ZM202.99 74.8307C201.193 74.8307 199.784 73.9079 199.055 72.8365V66.3187C199.784 65.346 201.339 64.3245 202.99 64.3245C206.101 64.3245 208.482 66.2698 208.482 69.5786C208.482 72.8853 206.101 74.8307 202.99 74.8307ZM190.354 59.9952C191.763 59.9952 192.492 60.2394 192.492 60.2394V64.5676C192.492 64.5676 188.604 63.2541 186.175 66.0277V78.8191H181.508V60.4815H185.446C185.625 60.4854 185.795 60.5584 185.922 60.6852C186.048 60.8121 186.121 60.983 186.125 61.1622V61.9405C187.001 60.919 188.896 59.9941 190.354 59.9941V59.9952ZM141.899 77.1169C141.657 76.5328 141.414 75.901 141.171 75.3658C140.781 74.4909 140.393 73.6637 140.054 72.8853L140.005 72.8365C136.602 65.4234 133.021 58.0936 129.264 50.8535L129.118 50.5604C128.72 49.8038 128.332 49.0406 127.953 48.2742C127.466 47.3981 126.981 46.4754 126.203 45.5993C124.648 43.6529 122.412 42.5825 120.031 42.5825C117.601 42.5825 115.414 43.6529 113.81 45.5016C113.081 46.3766 112.547 47.3004 112.061 48.1765C111.681 48.9429 111.293 49.705 110.896 50.4627L110.749 50.7558C107.007 58.0509 103.362 65.4437 100.008 72.7388L99.9595 72.8365C99.62 73.6148 99.2306 74.442 98.8422 75.3159C98.5821 75.8923 98.3391 76.4762 98.1133 77.0669C97.4809 78.8668 97.2867 80.569 97.5297 82.3211C97.7901 84.1007 98.5099 85.7814 99.618 87.1973C100.726 88.6132 102.184 89.7153 103.848 90.3946C105.094 90.9182 106.433 91.183 107.785 91.1729C108.173 91.1729 108.659 91.1252 109.048 91.0752C110.653 90.8809 112.305 90.3468 113.908 89.423C115.902 88.3037 117.797 86.6982 119.935 84.3642C122.074 86.6982 124.018 88.3037 125.961 89.423C127.567 90.3468 129.218 90.8809 130.821 91.0752C131.21 91.1252 131.696 91.1729 132.086 91.1729C133.446 91.1729 134.806 90.9308 136.021 90.3946C139.424 89.0322 141.805 85.9198 142.34 82.3211C142.726 80.619 142.532 78.9168 141.9 77.1169H141.899ZM119.982 79.6463C117.357 76.3385 115.657 73.2262 115.074 70.6002C114.831 69.482 114.781 68.5083 114.928 67.6333C115.023 66.9003 115.289 66.2 115.705 65.5891C116.63 64.2767 118.184 63.4506 119.982 63.4506C121.781 63.4506 123.385 64.2278 124.26 65.5891C124.649 66.1732 124.941 66.8549 125.038 67.6333C125.184 68.5093 125.135 69.5298 124.892 70.6002C124.306 73.1773 122.606 76.2908 119.982 79.6463ZM139.373 81.9325C139.032 84.4619 137.332 86.6504 134.951 87.6231C133.784 88.1094 132.521 88.256 131.257 88.1094C130.042 87.9629 128.827 87.5742 127.564 86.8447C125.814 85.871 124.065 84.3642 122.023 82.1268C125.23 78.1873 127.175 74.5875 127.904 71.3785C128.22 70.0238 128.302 68.6249 128.146 67.2425C127.966 66.0547 127.518 64.9237 126.835 63.9358C125.327 61.7462 122.799 60.4826 119.981 60.4826C117.163 60.4826 114.636 61.7961 113.129 63.9347C112.446 64.9233 111.997 66.055 111.817 67.2436C111.611 68.6239 111.694 70.0318 112.06 71.3785C112.789 74.5875 114.782 78.235 117.94 82.1746C115.947 84.413 114.149 85.9198 112.399 86.8936C111.135 87.6231 109.922 88.0117 108.707 88.1583C107.454 88.2981 106.187 88.1311 105.013 87.6719C102.632 86.6993 100.93 84.5097 100.591 81.9803C100.431 80.6991 100.581 79.3983 101.028 78.1873C101.173 77.7009 101.417 77.2146 101.66 76.6305C102 75.8522 102.388 75.025 102.778 74.1989L102.826 74.1012C106.223 66.7412 109.788 59.4601 113.519 52.2637L113.664 51.9706C114.053 51.2422 114.442 50.4638 114.83 49.7343C115.219 48.9559 115.657 48.2253 116.191 47.5935C117.211 46.4265 118.572 45.7937 120.079 45.7937C121.587 45.7937 122.947 46.4265 123.968 47.5935C124.502 48.2275 124.94 48.957 125.328 49.7343C125.718 50.4638 126.107 51.2422 126.494 51.9706L126.64 52.2637C130.326 59.4914 133.874 66.7881 137.284 74.15V74.1989C137.673 74.9783 138.013 75.8533 138.401 76.6327C138.645 77.2146 138.888 77.7009 139.033 78.1884C139.422 79.4509 139.567 80.6678 139.373 81.9325Z" fill="#1F1F1F"/>
</svg>
