<?xml version="1.0" encoding="UTF-8"?>
<svg width="350px" height="134px" viewBox="0 0 350 134" version="1.1" xmlns="http://www.w3.org/2000/svg" xmlns:xlink="http://www.w3.org/1999/xlink">
    <!-- Generator: Sketch 58 (84663) - https://sketch.com -->
    <title>-g-svg-logo-healto</title>
    <desc>Created with Sketch.</desc>
    <g id="Page-1" stroke="none" stroke-width="1" fill="none" fill-rule="evenodd">
        <g id="revolve_assets" transform="translate(-804.000000, -4690.000000)">
            <g id="logo" transform="translate(804.000000, 4690.000000)">
                <rect id="Rectangle" stroke="#FF0000" opacity="0" x="0.5" y="0.5" width="349" height="133"></rect>
                <path d="M227.850097,51.0062907 C226.229577,51.0141812 224.678547,51.6726638 223.538293,52.836847 C222.398039,54.0010302 221.761989,55.575526 221.770098,57.2138845 L221.770098,59.0539205 L216.590099,59.0539205 L216.590099,65.0340373 L221.770098,65.0340373 L221.770098,78.8343069 C221.770098,86.3612671 225.540097,88.9494496 234.830096,87.8019546 L234.830096,82.2262413 C230.215096,82.4537183 227.850097,82.5143788 227.850097,78.8343069 L227.850097,65.0340373 L234.830096,65.0340373 L234.830096,59.0539205 L227.850097,59.0539205 L227.850097,51.0062907 L227.850097,51.0062907 Z M206.480101,53.0080881 L206.480101,87.8019546 L212.560099,87.8019546 L212.560099,46.8004943 C210.93958,46.8083847 209.38855,47.4668674 208.248296,48.6310505 C207.108042,49.7952337 206.471992,51.3697295 206.480101,53.0080881 L206.480101,53.0080881 Z M103.750119,62.7997079 L107.570118,62.7997079 L107.570118,51.6988317 C107.580088,49.6670222 106.791293,47.7144287 105.377264,46.2706123 C103.963235,44.8267958 102.039805,44.0100303 100.030082,44 L100.030082,58.9477645 C100.020983,61.0436127 101.677466,62.7588495 103.750119,62.7997079 L103.750119,62.7997079 Z M86.9151217,62.7238823 C85.8713254,62.7286954 84.8722329,63.1528066 84.1379106,63.9027982 C83.4035884,64.6527898 82.9942728,65.6671402 83.0000606,66.7224219 L83.0701224,70.422714 L96.33512,70.422714 C98.3462485,70.4115747 99.968426,68.755704 99.9601194,66.7224219 L99.9601194,66.5202202 L99.9551194,66.5202202 L100.030119,62.7238823 L86.9151217,62.7238823 L86.9151217,62.7238823 Z M103.850119,70.4934846 L100.030119,70.4934846 L100.030119,81.3011683 C100.020149,83.3329778 100.808944,85.2855713 102.222974,86.7293877 C103.637003,88.1732042 105.560433,88.9899697 107.570156,89 L107.570156,74.345428 C107.579254,72.2495798 105.922771,70.5343431 103.850119,70.4934846 L103.850119,70.4934846 Z M194.725103,63.1383959 C192.415103,59.918333 189.150104,58.305774 184.875104,58.305774 C181.103697,58.2555903 177.493306,59.8486118 174.965106,62.6783869 C172.205107,65.6103123 170.855107,69.1741182 170.855107,73.4304651 C170.759867,77.4223347 172.23848,81.2886806 174.965106,84.1774882 C177.493306,87.0072632 181.103697,88.6002848 184.875104,88.5501011 C189.150104,88.5501011 192.415103,86.9375421 194.725103,83.6618737 L194.725103,87.8019546 L200.805102,87.8019546 L200.805102,59.0539205 L194.725103,59.0539205 L194.725103,63.1383959 L194.725103,63.1383959 Z M192.190103,80.0374073 C188.637025,83.4882195 183.023183,83.4882195 179.470105,80.0374073 C177.780556,78.2694362 176.866771,75.8878464 176.935106,73.4304651 C176.855698,70.9861272 177.772108,68.6159708 179.470105,66.8740732 C182.993276,63.3489409 188.666932,63.3489409 192.190103,66.8740732 C193.8881,68.6159708 194.804511,70.9861272 194.725103,73.4304651 C194.793438,75.8878464 193.879652,78.2694362 192.190103,80.0374073 L192.190103,80.0374073 Z M154.06511,58.310829 C149.730111,58.310829 146.130111,59.7464615 143.370112,62.6783869 C140.615112,65.5496518 139.205112,69.1134576 139.205112,73.4304651 C139.205112,77.7980229 140.613446,81.4191193 143.430112,84.2937542 C146.240111,87.1094136 149.955111,88.5501011 154.51511,88.5501011 C159.980109,88.5501011 164.085108,86.4775331 166.845108,82.2818468 L161.835108,79.2943159 C160.205112,81.6499663 157.785109,82.8581218 154.57511,82.8581218 C149.900111,82.8581218 146.465111,80.4418108 145.565111,76.074253 L167.970107,76.074253 C168.110727,75.218646 168.18595,74.353359 168.195107,73.4860705 C168.27769,69.5165058 166.84732,65.6668304 164.200108,62.7339924 C161.628614,59.8258027 157.922137,58.2082044 154.06511,58.310829 L154.06511,58.310829 Z M145.510111,71.0141541 C146.355111,66.6415412 149.505111,63.9421478 154.010111,63.9421478 C158.005109,63.9421478 161.215109,66.3584588 162.060108,71.0141541 L145.510111,71.0141541 Z M111.275117,62.7238823 C109.263989,62.7350216 107.641811,64.3908923 107.650118,66.4241743 L107.650118,66.6263761 L107.655118,66.6263761 L107.580118,70.422714 L120.695116,70.422714 C121.738912,70.4179008 122.738005,69.9937897 123.472327,69.2437981 C124.206649,68.4938065 124.615965,67.4794561 124.610177,66.4241743 L124.540115,62.7238823 L111.275117,62.7238823 L111.275117,62.7238823 Z M127.395115,51.2135475 L127.395115,81.7813974 C127.384478,83.6860448 128.123013,85.5168797 129.448106,86.8707823 C130.773199,88.2246848 132.576199,88.9906411 134.460113,89 L134.460113,44 C132.577069,44.0093617 130.774831,44.7746232 129.449882,46.1274308 C128.124933,47.4802384 127.385809,49.3097736 127.395115,51.2135475 L127.395115,51.2135475 Z M237.200095,73.4304651 C237.230444,65.1181382 243.914779,58.4016488 252.136624,58.422039 C260.358468,58.4425222 267.010056,65.1921601 266.999989,73.5045373 C266.989898,81.8169145 260.321962,88.5500445 252.100092,88.5501011 C248.129336,88.581594 244.312954,86.9969436 241.510296,84.1529724 C238.707638,81.3090012 237.154315,77.4447919 237.200095,73.4304651 L237.200095,73.4304651 Z M260.905091,73.4304651 C260.905091,68.1984947 257.065092,64.3465513 252.100092,64.3465513 C247.135093,64.3465513 243.295094,68.1984947 243.295094,73.4304651 C243.295094,78.6624354 247.135093,82.5093237 252.100092,82.5093237 C257.065092,82.5093237 260.905091,78.6624354 260.905091,73.4304651 L260.905091,73.4304651 Z" id="Shape_5_copy" fill="#1F1F1F"></path>
            </g>
        </g>
    </g>
</svg>