<svg width="350" height="134" viewBox="0 0 350 134" fill="none" xmlns="http://www.w3.org/2000/svg">
<g clip-path="url(#clip0_1059_78)">
<path fill-rule="evenodd" clip-rule="evenodd" d="M109.784 78.4954L109.461 77.2543L100.332 43.2118C100.084 42.2911 99.5394 41.4777 98.7829 40.8973C98.0264 40.3168 97.0999 40.0015 96.1464 40H72.7306C71.7771 40.0018 70.8507 40.3172 70.0943 40.8976C69.3379 41.4781 68.7934 42.2912 68.5449 43.2118L59.0907 78.4971C58.9395 79.0613 58.9781 79.6595 59.2005 80.1995C59.4229 80.7396 59.8167 81.1915 60.3213 81.4856L82.2709 94.1516C82.9298 94.5307 83.6766 94.7303 84.4367 94.7303C85.1968 94.7303 85.9437 94.5307 86.6025 94.1516L107.431 82.1255L108.545 81.4839C109.051 81.1911 109.447 80.7397 109.671 80.1995C109.895 79.6594 109.935 79.0605 109.784 78.4954ZM62.4203 80.4291C61.9673 80.1669 61.6134 79.7626 61.4134 79.2789C61.2135 78.7952 61.1788 78.259 61.3145 77.7535L69.4819 47.2691C69.5175 47.1181 69.6041 46.9841 69.7271 46.8896C69.8501 46.7951 70.0019 46.7459 70.157 46.7505C70.3121 46.7456 70.4641 46.7946 70.5872 46.8892C70.7102 46.9837 70.7968 47.1179 70.832 47.2691L82.3641 90.3105C82.4059 90.4687 82.3999 90.6357 82.347 90.7905C82.2941 90.9453 82.1966 91.081 82.0668 91.1806C81.937 91.2802 81.7806 91.3391 81.6174 91.3501C81.4542 91.3611 81.2913 91.3235 81.1494 91.2422L65.6268 82.2767L62.4203 80.4291ZM70.1552 44.7517L70.1675 44.7974H70.1429L70.1552 44.7517ZM87.7241 91.2422C87.5823 91.3248 87.4192 91.3633 87.2555 91.3529C87.0918 91.3424 86.9349 91.2835 86.8048 91.1836C86.6747 91.0836 86.5773 90.9472 86.525 90.7917C86.4727 90.6363 86.4678 90.4687 86.5111 90.3105L87.0033 88.4893L98.0432 47.2849C98.0853 47.1381 98.174 47.009 98.2959 46.9172C98.4179 46.8253 98.5664 46.7756 98.7191 46.7756C98.8718 46.7756 99.0203 46.8253 99.1423 46.9172C99.2642 47.009 99.3529 47.1381 99.395 47.2849L107.562 77.7623C107.697 78.2675 107.661 78.8028 107.461 79.2857C107.261 79.7686 106.907 80.1722 106.455 80.4344L93.7257 87.7861L87.7241 91.2422ZM98.72 44.7535L98.7323 44.7992H98.7077L98.72 44.7535ZM95.8071 41.9531C95.9724 41.9531 96.1362 41.9857 96.2889 42.0491C96.4416 42.1125 96.5803 42.2054 96.6971 42.3225C96.8139 42.4395 96.9064 42.5785 96.9693 42.7314C97.0323 42.8843 97.0645 43.0482 97.064 43.2135C97.064 43.3221 97.0499 43.4303 97.0218 43.5352L85.1223 87.9619C85.0792 88.1072 84.9903 88.2348 84.8688 88.3255C84.7473 88.4162 84.5998 88.4652 84.4481 88.4652C84.2965 88.4652 84.149 88.4162 84.0275 88.3255C83.906 88.2348 83.8171 88.1072 83.774 87.9619L73.2228 48.584L71.8674 43.537C71.8179 43.3506 71.8118 43.1553 71.8497 42.9662C71.8876 42.7771 71.9685 42.5992 72.086 42.4463C72.2036 42.2934 72.3547 42.1696 72.5277 42.0843C72.7008 41.9991 72.8911 41.9548 73.0839 41.9548L95.8071 41.9531Z" fill="black"/>
<path d="M134.984 41.96H147.798V43.6616H136.83V50.7163H147.137V52.4531H136.83V60.225H147.798V61.9442H134.984V41.96Z" fill="black"/>
<path fill-rule="evenodd" clip-rule="evenodd" d="M149.307 51.9331C149.307 58.0243 152.798 62.2961 158.448 62.2961C164.098 62.2961 167.598 58.0226 167.598 51.9331C167.598 45.8436 164.091 41.5981 158.448 41.5981C152.805 41.5981 149.307 45.8418 149.307 51.9331ZM165.641 51.9401C165.641 57.4249 162.526 60.5382 158.448 60.5382C154.37 60.5382 151.256 57.4249 151.256 51.9401C151.256 46.4553 154.37 43.3701 158.448 43.3701C162.526 43.3701 165.641 46.4553 165.641 51.9401Z" fill="black"/>
<path d="M176.695 41.6016C180.636 41.6016 183.393 43.5353 184.136 46.9492H182.203C181.515 44.634 179.566 43.3665 176.498 43.3665C174.487 43.3665 171.648 44.1646 171.648 46.784C171.648 48.7951 173.274 49.7865 175.516 50.3104L177.885 50.8378C180.752 51.4988 184.609 52.6291 184.609 56.4632C184.609 60.2973 181.109 62.3066 177.226 62.3066C172.237 62.3066 169.482 59.522 169.041 55.9393H170.975C171.652 59.1317 173.856 60.5381 177.142 60.5381C179.318 60.5381 182.681 59.74 182.681 56.7638C182.681 54.3378 180.311 53.1811 177.5 52.5746L174.992 52.0226C172.369 51.4408 169.758 50.1452 169.758 46.8666C169.758 43.2013 173.471 41.6016 176.695 41.6016Z" fill="black"/>
<path d="M196.437 43.9482L207.378 61.9442H210.05V41.96H208.205V59.9841L197.263 41.96H194.591V61.9442H196.437V43.9482Z" fill="black"/>
<path fill-rule="evenodd" clip-rule="evenodd" d="M212.872 54.5818C212.872 49.8143 215.848 46.8662 219.817 46.8662C223.978 46.8662 226.652 50.3926 226.431 55.0231H214.637C214.719 58.6339 216.952 60.7276 219.983 60.7276C222.298 60.7276 223.924 59.5708 224.502 57.5035H226.294C225.55 60.5904 223.152 62.2992 219.872 62.2992C215.546 62.2956 212.872 59.1841 212.872 54.5818ZM214.691 53.4515H224.557C224.557 50.9446 222.766 48.4079 219.789 48.4079C217.035 48.4079 215.05 50.1448 214.691 53.4515Z" fill="black"/>
<path d="M230.963 43.7798H229.226L229.222 47.1146H226.761V48.6018H229.222V58.4164C229.222 61.3662 229.838 61.9446 232.475 61.9446H233.881V60.3923H233.002C231.017 60.3923 230.963 59.9792 230.963 58.0771V48.6071H233.884V47.1199H230.963V43.7798Z" fill="black"/>
<path d="M243.926 47.1143H245.634L249.439 59.2669L252.603 47.1143H254.503L250.21 61.9442H248.611L244.726 49.4875L240.955 61.9442H239.373L235.073 47.1178H236.975L240.253 59.2476L243.926 47.1143Z" fill="black"/>
<path fill-rule="evenodd" clip-rule="evenodd" d="M268.377 54.5818C268.377 49.1797 265.207 46.8662 261.653 46.8662C258.125 46.8662 254.955 49.1797 254.955 54.5818C254.955 59.984 258.125 62.2992 261.653 62.2992C265.213 62.2992 268.377 59.984 268.377 54.5818ZM266.557 54.5748C266.557 58.8536 264.492 60.7276 261.653 60.7276C258.786 60.7276 256.775 58.8536 256.775 54.5748C256.775 50.2959 258.786 48.422 261.653 48.422C264.492 48.422 266.557 50.2959 266.557 54.5748Z" fill="black"/>
<path d="M277.378 48.8497C277.241 48.8278 277.103 48.819 276.965 48.8234H276.613C273.554 48.8234 272.57 51.0278 272.57 54.1693V61.9446H270.889V47.1147H272.513V49.8148C273.176 48.078 275.133 47.0021 276.896 47.0021H277.116C277.209 46.9975 277.302 47.0069 277.392 47.0303L277.378 48.8497Z" fill="black"/>
<path d="M280.781 54.5275V41.96H279.067V61.9442H280.776V56.7601L283.061 54.2796L288.159 61.9407H290.144L284.167 53.0666L289.65 47.1142H287.561L280.781 54.5275Z" fill="black"/>
<path d="M134.984 72.1968H147.193V73.8985H136.83V80.9531H146.553V82.6899H136.83V92.181H134.984V72.1968Z" fill="black"/>
<path fill-rule="evenodd" clip-rule="evenodd" d="M161.466 84.8186C161.466 79.4165 158.297 77.103 154.742 77.103C151.214 77.103 148.044 79.4165 148.044 84.8186C148.044 90.2208 151.182 92.536 154.742 92.536C158.302 92.536 161.466 90.2208 161.466 84.8186ZM159.647 84.8116C159.647 89.0904 157.579 90.9644 154.742 90.9644C151.875 90.9644 149.864 89.0904 149.864 84.8116C149.864 80.5328 151.875 78.6588 154.742 78.6588C157.579 78.6588 159.647 80.5328 159.647 84.8116Z" fill="black"/>
<path d="M173.259 89.7797C172.515 91.1861 171.054 92.5362 168.491 92.5362C165.102 92.5362 163.667 90.4407 163.667 86.8035V77.3511H165.376V86.3341C165.376 89.1187 166.039 90.9927 168.932 90.9927C171.274 90.9927 173.259 88.8427 173.259 85.7013V77.3511H174.967V92.1811H173.259V89.7797Z" fill="black"/>
<path d="M184.968 77.103C182.185 77.103 180.779 78.4514 180.035 79.8577V77.3509H178.327V92.1809H180.035V83.9361C180.035 80.7947 181.964 78.6447 184.527 78.6447C187.505 78.6447 188.248 80.5205 188.248 83.3033V92.1809H189.957V82.8339C189.957 79.1967 188.468 77.103 184.968 77.103Z" fill="black"/>
<path fill-rule="evenodd" clip-rule="evenodd" d="M198.398 77.1029C200.603 77.1029 202.34 78.1225 203.414 79.9156V72.1982H205.123V92.1807H203.414V89.7548C202.34 91.5127 200.601 92.5394 198.398 92.5394C194.981 92.5394 192.198 89.7548 192.198 84.822C192.198 79.8892 194.981 77.1029 198.398 77.1029ZM198.75 78.6446C195.994 78.6446 194.037 80.8772 194.037 84.8185C194.037 88.7598 195.994 90.9924 198.75 90.9924C200.981 90.9924 203.518 89.2344 203.518 84.8185C203.518 80.4025 200.988 78.6446 198.764 78.6446H198.75Z" fill="black"/>
<path fill-rule="evenodd" clip-rule="evenodd" d="M212.478 92.5361C215.233 92.5361 217.08 91.4884 218.046 89.9168L218.137 92.188H219.874L219.863 91.9918C219.776 90.4408 219.698 89.0561 219.698 87.4416C219.698 86.933 219.703 86.3984 219.709 85.7894C219.717 84.9839 219.726 84.0483 219.726 82.8709C219.726 78.462 217.439 77.0293 213.993 77.0293C210.66 77.0293 208.345 78.9296 207.93 81.8795H209.722C209.861 79.9176 211.348 78.5394 213.884 78.5394C216.006 78.5394 218.017 79.2549 218.017 82.6459V83.1733C210.88 83.9222 207.573 85.1035 207.573 88.4928C207.573 90.9364 209.723 92.5361 212.478 92.5361ZM218.1 85.3936C218.1 89.5863 215.62 91.019 212.865 91.019C210.88 91.019 209.474 90.0275 209.474 88.4524C209.474 86.1653 212.093 85.3391 218.1 84.6781V85.3936Z" fill="black"/>
<path d="M223.342 74.0161H225.079V77.3562H227.999V78.8434H225.079V88.3134C225.079 90.2155 225.133 90.6286 227.118 90.6286H227.997V92.1809H226.591C223.954 92.1809 223.339 91.6025 223.339 88.6527V78.8381H220.877V77.3509H223.339L223.342 74.0161Z" fill="black"/>
<path d="M231.77 74.9251V72.1968H230.056V74.9251H231.77Z" fill="black"/>
<path d="M231.77 92.181V77.3511H230.056V92.181H231.77Z" fill="black"/>
<path fill-rule="evenodd" clip-rule="evenodd" d="M240.955 77.103C244.509 77.103 247.679 79.4165 247.679 84.8186C247.679 90.2208 244.515 92.536 240.955 92.536C237.427 92.536 234.257 90.2208 234.257 84.8186C234.257 79.4165 237.42 77.103 240.955 77.103ZM240.955 90.9644C243.792 90.9644 245.859 89.0904 245.859 84.8116C245.859 80.5328 243.792 78.6588 240.955 78.6588C238.088 78.6588 236.077 80.5328 236.077 84.8116C236.077 89.0904 238.081 90.9644 240.955 90.9644Z" fill="black"/>
<path d="M256.81 77.103C254.027 77.103 252.621 78.4514 251.877 79.8577V77.3509H250.168V92.1809H251.877V83.9361C251.877 80.7947 253.805 78.6447 256.368 78.6447C259.346 78.6447 260.09 80.5205 260.09 83.3033V92.1809H261.799V82.8339C261.799 79.1967 260.31 77.103 256.81 77.103Z" fill="black"/>
</g>
<defs>
<clipPath id="clip0_1059_78">
<rect width="350" height="134" fill="white"/>
</clipPath>
</defs>
</svg>
