<svg width="350" height="134" viewBox="0 0 350 134" fill="none" xmlns="http://www.w3.org/2000/svg">
<path fill-rule="evenodd" clip-rule="evenodd" d="M297.944 63.3227H290.571V81.1714H286.029V63.3227H278.625V59.3564H297.944V63.3227Z" fill="#1F1F1F"/>
<path fill-rule="evenodd" clip-rule="evenodd" d="M272.75 81.1717H268.885L259.211 67.6663V81.1717H254.64V59.3564H258.504L268.208 72.8872V59.3564H272.75V81.1717Z" fill="#1F1F1F"/>
<path fill-rule="evenodd" clip-rule="evenodd" d="M247.259 59.3564V72.3066C247.259 75.1922 246.434 77.468 244.752 79.072C243.07 80.676 240.799 81.4934 237.88 81.4934C234.96 81.4934 232.659 80.676 230.977 79.072C229.297 77.468 228.469 75.1922 228.469 72.3066V59.3564H233.012V72.2474C233.012 75.6587 234.694 77.4976 237.88 77.4976C241.034 77.4976 242.717 75.6587 242.717 72.2474V59.3564H247.259Z" fill="#1F1F1F"/>
<path fill-rule="evenodd" clip-rule="evenodd" d="M205.457 64.9838C204.189 66.2681 203.57 68.0182 203.57 70.264C203.57 72.4805 204.189 74.2306 205.457 75.5422C206.726 76.8537 208.378 77.4974 210.413 77.4974C212.447 77.4974 214.071 76.8537 215.309 75.5422C216.578 74.2306 217.197 72.4805 217.197 70.264C217.197 68.0182 216.578 66.2681 215.309 64.9838C214.071 63.6703 212.447 63.0305 210.413 63.0305C208.378 63.0305 206.726 63.6703 205.457 64.9838ZM218.641 62.1259C220.794 64.1661 221.857 66.8807 221.857 70.264C221.857 73.6457 220.794 76.358 218.641 78.4297C216.488 80.4726 213.745 81.4936 210.413 81.4936C207.049 81.4936 204.307 80.4726 202.153 78.4297C200 76.358 198.939 73.6457 198.939 70.264C198.939 66.8807 200 64.1661 202.153 62.1259C204.307 60.0557 207.049 59.0347 210.413 59.0347C213.745 59.0347 216.488 60.0557 218.641 62.1259Z" fill="#1F1F1F"/>
<path fill-rule="evenodd" clip-rule="evenodd" d="M192.277 81.5382H187.998V69.3214L182.235 81.2968H179.383L173.592 69.3214V81.5382H169.258V58.9229H173.09L180.809 74.4634L188.473 58.9229H192.277V81.5382Z" fill="#1F1F1F"/>
<path fill-rule="evenodd" clip-rule="evenodd" d="M148.478 73.376H154.494L151.487 66.1492L148.478 73.376ZM162.98 81.5382H157.918L156.101 77.185H146.84L144.995 81.5382H139.961L149.521 58.9229H153.393L162.98 81.5382Z" fill="#1F1F1F"/>
<path fill-rule="evenodd" clip-rule="evenodd" d="M108.366 83.9397L98.4458 64.8863L100.879 60.1662H101.691L114.069 83.9397H108.366ZM88.6252 83.9397L96.2068 69.23L103.866 83.9397H88.6252ZM66.7874 83.9397L74.3686 69.2312L82.0256 83.9397H66.7874ZM56.5827 83.9397L68.8372 60.1662H69.6492L72.1124 64.8973L62.296 83.9397H56.5827ZM84.2496 50.0603H86.2255L93.9509 64.8973L85.3242 81.6309L76.6076 64.8871L84.2496 50.0603ZM104.078 56.1055H98.4831L96.1899 60.5537L88.6125 46H81.8541L74.3517 60.5529L72.0362 56.1055H66.4417L50 88H60.2024H82.0406H88.6402H110.48H120.684L104.078 56.1055Z" fill="#1F1F1F"/>
</svg>
