<?xml version="1.0" encoding="UTF-8"?>
<svg width="350px" height="134px" viewBox="0 0 350 134" version="1.1" xmlns="http://www.w3.org/2000/svg" xmlns:xlink="http://www.w3.org/1999/xlink">
    <!-- Generator: Sketch 61.2 (89653) - https://sketch.com -->
    <title>-g-svg-logo-headset</title>
    <desc>Created with Sketch.</desc>
    <g id="Page-1" stroke="none" stroke-width="1" fill="none" fill-rule="evenodd">
        <g id="revolve_assets" transform="translate(-419.000000, -4875.000000)">
            <g id="new" transform="translate(34.000000, 4875.000000)">
                <g id="headset" transform="translate(385.000000, 0.000000)">
                    <rect id="Rectangle" stroke="#FF0000" opacity="0" x="0.5" y="0.5" width="349" height="133"></rect>
                    <path d="M89.4777549,46 L106.751636,54.3187279 L99.847329,59.824 L106.751329,54.319 L111.017467,73.0108252 L99.0640985,88 L94.8077838,79.1626155 L94.810329,79.161 L101.454915,70.8277093 L99.0826559,60.4347119 L99.081329,60.433 L89.4777549,55.808795 L79.873329,60.433 L79.8730917,60.434355 L77.5005948,70.8277093 L84.144329,79.161 L84.1477259,79.1626155 L79.8914112,88 L67.937329,73.0101114 L72.2036361,54.3190848 L79.871329,60.433 L72.2038741,54.3187279 L89.4777549,46 Z M222.909057,51.5169119 C226.05183,51.5169119 229.156232,52.4981149 231.489749,54.2195069 L231.77737,54.4385186 L232.078334,54.6752449 L229.561184,57.9430192 L229.253083,57.6932075 C227.637634,56.3846703 225.265613,55.6031167 222.909057,55.6031167 C218.947758,55.6031167 217.542865,57.918038 217.542865,59.9010667 C217.542865,61.1988977 218.167394,62.4515246 219.255859,63.3413299 C220.254426,64.1896699 221.878675,64.7302973 223.26474,65.1613204 L223.579979,65.2589318 L223.697748,65.2946191 C225.718843,65.9024942 228.009973,66.5936397 229.983485,68.3185297 C231.527559,69.6687022 233.177505,72.1822832 233.177505,75.1883501 C233.177505,79.6147746 229.964451,84.37785 222.909057,84.37785 C219.361379,84.37785 216.028804,83.2240136 213.480693,81.1213528 L213.190194,80.874539 L212.902316,80.6235378 L215.588386,77.4747214 L215.883401,77.7411872 C217.682045,79.3625838 220.24202,80.2916452 222.909057,80.2916452 C225.927019,80.2916452 228.971153,78.7142631 228.971153,75.1883501 C228.971153,73.777509 228.224097,72.2405726 227.067826,71.272255 C225.982706,70.32877 224.366459,69.7899045 222.486672,69.2047744 L222.10728,69.0869979 L221.783715,68.9870732 C220.052877,68.4636584 218.26375,67.9212102 216.349716,66.3021928 C214.893671,65.0793053 213.336512,62.7798485 213.336512,59.996233 C213.336512,55.0035687 217.27283,51.5169119 222.909057,51.5169119 Z M124.840735,51.8003886 L124.840735,65.430588 L137.615627,65.430588 L137.615627,51.8003886 L141.821979,51.8003886 L141.821979,84.0938975 L137.615627,84.0938975 L137.615627,69.5167929 L124.840735,69.5167929 L124.840735,84.0938975 L120.635572,84.0938975 L120.635572,51.8003886 L124.840735,51.8003886 Z M163.165411,51.8003886 L163.165411,55.8865934 L152.384538,55.8870683 C151.104413,55.8908671 150.472203,55.9250565 150.069333,56.232761 C149.483336,56.6901801 149.435001,57.4643196 149.431906,59.2703914 L149.431718,65.4293985 L160.381795,65.3818153 L160.381795,69.4680201 L149.431718,69.5156033 L149.431906,76.6237529 C149.435006,78.4288825 149.483439,79.2042094 150.071712,79.6639042 C150.472468,79.9694939 151.104443,80.0034483 152.384541,80.007221 L163.165411,80.0076926 L163.165411,84.0938975 L152.625518,84.0937807 C150.648599,84.0912125 148.783501,84.0321428 147.215532,82.6735398 C145.367521,81.0254627 145.23552,79.0112075 145.226091,76.8679329 L145.225456,59.2740903 C145.227808,57.1202191 145.291299,55.0873448 147.005558,53.4145309 L147.210774,53.2231254 C148.781018,51.8645224 150.640774,51.803276 152.615141,51.8005184 L163.165411,51.8003886 Z M176.790019,51.5160791 C178.172311,51.5160791 179.504639,52.0383045 180.445597,52.9495222 C181.298056,53.767376 181.700849,54.5539096 182.599814,58.0056369 L182.685574,58.3371268 L189.447143,84.0938975 L185.120643,84.0938975 L182.708176,74.8651414 L170.871862,74.8651414 L168.459396,84.0938975 L164.132896,84.0938975 L170.895654,58.3359372 C171.855645,54.6030374 172.256533,53.7929339 173.135632,52.9483326 C174.07421,52.0383045 175.407728,51.5160791 176.790019,51.5160791 Z M198.130054,51.8007627 C201.249001,51.809638 205.661384,51.9782683 208.801122,55.1822435 C211.981744,58.4254123 212.065445,62.8550201 212.067647,67.5640238 L212.067647,68.3289262 C212.065445,73.0390281 211.981744,77.4686358 208.801122,80.7118046 C205.661384,83.9157799 201.249001,84.0844102 198.130054,84.0932854 L197.466386,84.0936618 C196.289192,84.0910935 194.438194,84.0320238 192.869087,82.6734208 C190.951145,80.9619561 190.882647,78.8556042 190.880201,76.619954 L190.880201,59.2740943 C190.882641,57.038447 190.950975,54.932177 192.864328,53.2230065 C194.437987,51.8621278 196.289183,51.8029591 197.466385,51.8003866 L198.130054,51.8007627 Z M253.360264,51.8003886 L253.360264,55.8865934 L242.579391,55.8870683 C241.299267,55.8908671 240.667057,55.9250565 240.264186,56.232761 C239.678189,56.6901801 239.629854,57.4643196 239.626759,59.2703914 L239.626571,65.4293985 L250.576649,65.3818153 L250.576649,69.4680201 L239.626571,69.5156033 L239.626571,76.3711487 C239.626571,78.3577461 239.651552,79.1833142 240.266565,79.6639042 C240.667321,79.9694939 241.299296,80.0034483 242.579394,80.007221 L253.360264,80.0076926 L253.360264,84.0938975 L242.820371,84.0937807 C240.843452,84.0912125 238.978354,84.0321428 237.410385,82.6735398 C235.491296,80.9620751 235.422757,78.8557232 235.42031,76.6200729 L235.420309,59.2740903 C235.422661,57.1202191 235.486152,55.0873448 237.200411,53.4145309 L237.405627,53.2231254 C238.975871,51.8645224 240.835627,51.803276 242.809994,51.8005184 L253.360264,51.8003886 Z M276.790456,51.7997938 L276.790456,55.8859987 L268.067271,55.8859987 L268.067271,84.0933027 L263.860918,84.0933027 L263.860918,55.8859987 L255.138923,55.8859987 L255.138923,51.7997938 L276.790456,51.7997938 Z M197.89025,55.8865609 L197.421037,55.8867346 C196.753397,55.8893354 196.134915,55.9179443 195.722888,56.2326421 C195.138028,56.6900612 195.089743,57.4642007 195.08665,59.2702724 L195.086463,76.3710298 C195.086463,78.3576272 195.111444,79.1831952 195.726456,79.6637852 C196.135239,79.9763202 196.753427,80.0047324 197.421039,80.0073154 L197.89025,80.0074872 C200.417519,80.0050672 203.748856,79.9348863 205.743903,77.8996392 C207.727899,75.8754957 207.851898,72.8758739 207.859648,68.7802114 L207.859648,67.1128566 C207.851898,63.0181742 207.727899,60.0185525 205.743903,57.994409 C203.820108,56.0318493 200.653767,55.8965003 198.164008,55.8871659 L197.89025,55.8865609 Z M176.790019,55.602284 C176.522364,55.602284 176.248761,55.7057774 176.091736,55.865181 C175.848886,56.1126135 175.619273,56.8034898 175.051296,59.023418 L174.984238,59.286411 L171.956759,70.7789365 L181.62447,70.7789365 L178.59699,59.2899798 C177.978409,56.8584797 177.740493,56.1221301 177.488302,55.865181 C177.332468,55.7057774 177.057675,55.602284 176.790019,55.602284 Z M280.039672,51.7995559 C280.319224,51.7995559 280.580931,51.853087 280.825984,51.9589595 C281.071038,52.0648321 281.285162,52.2087712 281.469547,52.393156 C281.652742,52.5763512 281.797871,52.791665 281.902554,53.0390975 C282.008426,53.28653 282.061957,53.549427 282.061957,53.8289782 C282.061957,54.1073397 282.008426,54.3702367 281.902554,54.6152901 C281.797871,54.8603434 281.652742,55.0756572 281.469547,55.2588525 C281.285162,55.4420477 281.071038,55.5871763 280.825984,55.6918593 C280.580931,55.7989214 280.319224,55.8512629 280.039672,55.8512629 C279.760121,55.8512629 279.497224,55.7989214 279.253361,55.6918593 C279.007118,55.5871763 278.792993,55.4420477 278.609798,55.2588525 C278.425413,55.0756572 278.281474,54.8603434 278.175602,54.6152901 C278.069729,54.3702367 278.017388,54.1073397 278.017388,53.8289782 C278.017388,53.549427 278.069729,53.28653 278.175602,53.0390975 C278.281474,52.791665 278.425413,52.5763512 278.609798,52.393156 C278.792993,52.2087712 279.007118,52.0648321 279.253361,51.9589595 C279.497224,51.853087 279.760121,51.7995559 280.039672,51.7995559 Z M280.039672,52.1528609 C279.807705,52.1528609 279.591201,52.1968754 279.386593,52.2849042 C279.183175,52.3729331 279.005928,52.491891 278.854852,52.6441572 C278.702585,52.7952338 278.583627,52.9724811 278.495599,53.1758991 C278.40757,53.3805068 278.363555,53.5970102 278.363555,53.8289782 C278.363555,54.0597565 278.40757,54.27626 278.495599,54.4784884 C278.583627,54.6795273 278.702585,54.8555851 278.854852,55.0078512 C279.005928,55.1589278 279.183175,55.2790753 279.386593,55.3671042 C279.591201,55.4539435 279.807705,55.4979579 280.039672,55.4979579 C280.270451,55.4979579 280.486954,55.4539435 280.689183,55.3671042 C280.890222,55.2790753 281.066279,55.1589278 281.218546,55.0078512 C281.369622,54.8555851 281.48977,54.6795273 281.577798,54.4784884 C281.664638,54.27626 281.708652,54.0597565 281.708652,53.8289782 C281.708652,53.5970102 281.664638,53.3805068 281.577798,53.1758991 C281.48977,52.9724811 281.369622,52.7952338 281.218546,52.6441572 C281.066279,52.491891 280.890222,52.3729331 280.689183,52.2849042 C280.486954,52.1968754 280.270451,52.1528609 280.039672,52.1528609 Z M280.249038,52.6679488 C280.340636,52.6679488 280.426286,52.6857925 280.505988,52.7214798 C280.589258,52.7571672 280.661822,52.8047504 280.721301,52.8654189 C280.78078,52.9248979 280.829553,52.9927039 280.86524,53.068837 C280.880705,53.1128514 280.89379,53.1556763 280.904497,53.1973116 C280.914013,53.2389468 280.918772,53.2817717 280.918772,53.3257861 C280.918772,53.4090567 280.904497,53.481621 280.877136,53.5411 C280.868809,53.5732186 280.855724,53.6053372 280.83788,53.6362663 C280.820036,53.6695745 280.801003,53.699314 280.78078,53.7266743 C280.736766,53.7825846 280.685614,53.8289782 280.626135,53.8646655 C280.570225,53.9039216 280.508367,53.9360403 280.440561,53.9598319 L281.128138,54.8758079 L280.78078,54.9828701 L280.057516,53.9836235 L279.65068,53.9836235 L279.65068,54.9828701 L279.309271,54.9828701 L279.309271,52.6679488 L280.249038,52.6679488 Z M280.249038,52.9724811 L279.65068,52.9724811 L279.65068,53.6671954 L280.249038,53.6671954 C280.288295,53.6671954 280.332309,53.6576787 280.381082,53.6362663 C280.420338,53.6219914 280.456025,53.5970102 280.488144,53.5648915 C280.50004,53.5458583 280.511935,53.526825 280.523831,53.5113605 C280.535727,53.495896 280.546433,53.4780523 280.553571,53.4578294 C280.573794,53.4090567 280.5845,53.3638527 280.5845,53.3198382 C280.5845,53.272255 280.573794,53.2282406 280.553571,53.1889845 C280.546433,53.1687616 280.535727,53.1485388 280.523831,53.128316 C280.511935,53.1080931 280.50004,53.0902494 280.488144,53.0747849 C280.464352,53.0509933 280.428665,53.0248226 280.381082,52.9974622 C280.360859,52.9891352 280.339446,52.9831873 280.318034,52.9796185 C280.295432,52.9748602 280.27283,52.9724811 280.249038,52.9724811 Z" fill="#000000"></path>
                </g>
            </g>
        </g>
    </g>
</svg>