<svg xmlns="http://www.w3.org/2000/svg" width="25" height="25" viewBox="0 0 25 25"><g fill="none"><path fill="#12100E" d="M0 0h25v25H0z"/><path fill="#FFF" d="M5.966 8.361a.65.65 0 0 0-.212-.549L4.186 5.923v-.282h4.87l3.763 8.254 3.309-8.254h4.641v.282L19.43 7.21a.392.392 0 0 0-.15.376v9.445a.392.392 0 0 0 .15.377l1.309 1.285v.282h-6.586v-.282l1.356-1.317c.133-.133.133-.172.133-.376V9.364l-3.771 9.579h-.51L6.97 9.364v6.42a.886.886 0 0 0 .243.737l1.764 2.14v.282H3.974v-.282l1.765-2.14a.854.854 0 0 0 .227-.737V8.361z"/></g></svg>