<svg width="350" height="134" viewBox="0 0 350 134" fill="none" xmlns="http://www.w3.org/2000/svg">
<path fill-rule="evenodd" clip-rule="evenodd" d="M119.956 53.9179L100.561 45.2924C99.6349 44.9025 98.1242 44.9025 97.2471 45.2924L77.8518 53.9179C76.9259 54.3078 76.9259 54.99 77.8518 55.4286L97.2471 64.0541C98.173 64.444 99.6837 64.444 100.561 64.0541L119.956 55.3799C120.882 54.99 120.882 54.3078 119.956 53.9179ZM150.072 78.6734C147.002 78.6734 143.689 77.6988 140.716 75.6521C140.277 75.3597 140.18 74.7749 140.472 74.385L142.324 71.5099C142.616 71.0713 143.201 70.9251 143.591 71.2175C145.881 72.6794 148.269 73.5079 150.219 73.5079C152.119 73.5079 153.045 72.7769 153.045 71.7535V71.6561C153.045 70.4314 151.325 69.9021 149.185 69.2435L149.185 69.2434L149.184 69.2431C148.855 69.1418 148.516 69.0375 148.172 68.9271C144.907 67.9524 141.154 66.4417 141.154 61.861V61.7635C141.154 56.9878 145.004 54.3563 149.731 54.3563C152.412 54.3563 155.287 55.1847 157.723 56.5979C158.162 56.8416 158.308 57.4264 158.064 57.8162L156.408 60.8376C156.164 61.2762 155.579 61.4711 155.189 61.2274C153.143 60.1553 151.145 59.4731 149.683 59.4731C148.074 59.4731 147.246 60.2041 147.246 61.0812V61.1787C147.246 62.3165 148.922 62.9077 151.014 63.6455C151.342 63.7609 151.679 63.8799 152.022 64.0052C155.287 65.0773 159.137 66.6854 159.137 70.9738V71.0713C159.039 76.2856 155.092 78.6734 150.072 78.6734ZM173.123 78.7222C165.813 78.7222 160.452 73.3617 160.452 66.5879V66.4905C160.452 59.7168 165.862 54.3075 173.171 54.3075C180.481 54.3075 185.842 59.668 185.842 66.4417V66.5392C185.842 73.2642 180.384 78.7222 173.123 78.7222ZM179.312 66.4905C179.312 63.0305 176.826 60.0091 173.123 60.0091C169.321 60.0091 167.031 62.9818 167.031 66.393V66.4905C167.031 69.9504 169.516 72.9718 173.22 72.9718C177.021 72.9718 179.312 69.9992 179.312 66.5879V66.4905ZM203.093 77.2602C203.093 76.4318 202.118 76.0419 201.582 76.5292C200.266 77.6988 198.561 78.576 196.27 78.576C191.202 78.576 188.327 75.2622 188.327 69.853V55.672C188.327 55.136 188.765 54.6974 189.302 54.6974L194.126 55.7207C194.662 55.7207 195.101 56.1593 195.101 56.6954V67.8062C195.101 70.9251 196.563 72.582 199.145 72.582C201.679 72.582 203.288 70.9738 203.288 67.8062V55.672C203.288 55.136 203.726 54.6974 204.262 54.6974H209.087C209.623 54.6974 210.061 55.136 210.061 55.672V77.3089C210.061 77.845 209.623 78.2836 209.087 78.2836H204.165C203.531 78.1861 203.093 77.7963 203.093 77.2602ZM226.435 61.2762C222.001 61.2762 219.272 63.9564 219.272 69.5606V77.2602C219.272 77.7963 218.833 78.2349 218.297 78.2349H213.473C212.936 78.2349 212.498 77.7963 212.498 77.2602V55.672C212.498 55.136 212.936 54.6974 213.473 54.6974H218.297C218.833 54.6974 219.272 55.136 219.272 55.672V56.0619C219.272 56.939 220.344 57.2802 220.928 56.6466C222.049 55.2822 223.657 54.405 225.753 54.3075C226.289 54.2588 226.776 54.6974 226.776 55.2334V61.2274L226.435 61.2762ZM240.519 78.7222C233.453 78.7222 228.336 73.3129 228.336 66.5879V66.4905C228.336 59.7655 233.501 54.3075 240.616 54.3075C244.612 54.3075 247.292 55.5258 249.388 57.5726C249.778 57.9137 249.778 58.5472 249.437 58.8396L246.61 61.9097C246.269 62.2995 245.636 62.2995 245.294 61.9584C244.027 60.7889 242.614 60.0579 240.616 60.0579C237.302 60.0579 234.963 63.0305 234.963 66.4417V66.5392C234.963 70.0966 237.302 73.0205 240.909 73.0205C242.858 73.0205 244.222 72.2896 245.636 71.12C246.025 70.7789 246.561 70.8276 246.903 71.1687L249.534 73.849C249.924 74.2388 249.924 74.8236 249.534 75.1647C247.292 77.2115 244.758 78.7222 240.519 78.7222ZM272.925 68.7809H258.744C258.062 68.7809 257.624 69.4631 257.867 70.0479C258.793 72.2408 260.694 73.3617 263.179 73.3617C265.177 73.3617 266.639 72.7769 268.296 71.5099C268.637 71.2175 269.173 71.2175 269.465 71.5099L271.999 73.7028C272.389 74.0439 272.438 74.6774 272.048 75.0186C269.904 77.3089 266.931 78.6734 263.082 78.6734C256.015 78.6734 250.85 73.7028 250.85 66.5392V66.4417C250.85 59.7168 255.626 54.2588 262.448 54.2588C270.245 54.2588 273.9 60.3503 273.9 66.9778V67.0753C273.9 67.3677 273.9 67.66 273.851 67.9037C273.851 68.4398 273.413 68.7809 272.925 68.7809ZM262.448 59.668C260.06 59.668 258.452 61.0812 257.672 63.4204C257.477 64.0539 257.916 64.6387 258.598 64.6387H266.298C266.931 64.6387 267.321 64.0539 267.224 63.4691C266.493 61.13 264.885 59.668 262.448 59.668ZM102.9 88.0301L120.541 79.9893C121.077 79.6969 121.418 79.2096 121.418 78.6736L121.369 73.6054C121.369 72.5333 120.102 71.8511 119.03 72.3384L101.389 80.2817C100.853 80.5254 100.512 81.0127 100.512 81.5487V86.763C100.512 87.8351 101.828 88.5174 102.9 88.0301ZM95.444 88.225L77.9493 80.038C77.0721 79.6482 77.0234 78.4786 77.9493 78.0888L83.7484 75.2136C84.1382 75.0187 84.5768 75.0187 84.9179 75.2136L96.6136 80.4279C97.0522 80.6228 97.2958 81.0127 97.2958 81.4025V87.2503C97.2471 88.0788 96.2725 88.6148 95.444 88.225ZM98.0268 69.5118L77.9005 60.2528C77.0234 59.9116 76.0487 60.4477 76 61.3249V66.198C76 66.6366 76.2924 67.0265 76.731 67.2214L98.0755 76.8216C98.4654 77.0165 98.904 77.0165 99.2938 76.8216L119.371 67.9524C120.346 67.4651 120.346 66.2955 119.371 65.8569L114.011 63.5665C113.67 63.4203 113.231 63.4203 112.841 63.5665L99.1964 69.5118C98.8065 69.7067 98.4166 69.7067 98.0268 69.5118Z" fill="black"/>
</svg>
