<svg xmlns="http://www.w3.org/2000/svg" width="350" height="134" viewBox="0 0 350 134">
    <g fill="none" fill-rule="evenodd">
        <path d="M0 0h350v134H0z"/>
        <path fill="#1F1F1F" fill-rule="nonzero" d="M281 64.357v-3.706h-4.63v-5.764l-.156.048-4.35 1.323-.086.026v4.367h-6.863v-2.433c0-1.133.254-2 .757-2.577.498-.572 1.211-.862 2.12-.862.654 0 1.33.153 2.012.456l.17.076v-3.905l-.08-.029c-.635-.227-1.5-.341-2.572-.341-1.35 0-2.578.292-3.648.871a6.203 6.203 0 0 0-2.502 2.46c-.589 1.052-.886 2.266-.886 3.61v2.674h-3.225v3.707h3.225v15.616h4.627V64.358h6.864v9.924c0 4.087 1.94 6.158 5.763 6.158.63 0 1.29-.073 1.965-.217.688-.146 1.156-.294 1.431-.45l.062-.036v-3.741l-.188.123a3.245 3.245 0 0 1-.93.404c-.368.103-.676.155-.914.155-.896 0-1.56-.24-1.97-.714-.416-.478-.628-1.314-.628-2.483V64.36h4.631v-.002H281zm-34.272 12.32c-1.68 0-3.004-.554-3.938-1.645-.938-1.096-1.415-2.658-1.415-4.645 0-2.049.477-3.652 1.416-4.768.934-1.108 2.246-1.67 3.9-1.67 1.605 0 2.883.536 3.797 1.597.92 1.066 1.387 2.657 1.387 4.73 0 2.099-.439 3.71-1.304 4.789-.86 1.07-2.153 1.612-3.843 1.612zm.207-16.492c-3.205 0-5.75.933-7.566 2.774-1.813 1.843-2.734 4.391-2.734 7.577 0 3.025.899 5.458 2.669 7.232 1.77 1.773 4.18 2.672 7.16 2.672 3.108 0 5.602-.946 7.417-2.812 1.814-1.866 2.732-4.391 2.732-7.502 0-3.073-.862-5.524-2.564-7.286-1.702-1.762-4.097-2.655-7.114-2.655zm-17.76 0c-2.181 0-3.984.554-5.362 1.647-1.386 1.1-2.089 2.542-2.089 4.287 0 .908.151 1.713.45 2.396.302.686.765 1.29 1.383 1.796.613.504 1.56 1.03 2.813 1.565 1.053.431 1.84.796 2.34 1.084.488.282.835.564 1.03.84.19.27.286.64.286 1.096 0 1.298-.978 1.93-2.99 1.93-.745 0-1.598-.155-2.53-.458a9.585 9.585 0 0 1-2.59-1.308l-.191-.136v4.429l.07.034c.655.3 1.48.554 2.453.752.971.2 1.854.302 2.62.302 2.366 0 4.271-.557 5.66-1.658 1.4-1.106 2.109-2.582 2.109-4.389 0-1.3-.381-2.418-1.134-3.32-.747-.893-2.045-1.712-3.853-2.438-1.44-.575-2.365-1.052-2.744-1.418-.366-.355-.554-.855-.554-1.489 0-.562.23-1.011.703-1.376.476-.367 1.138-.553 1.97-.553.772 0 1.56.121 2.344.358.784.237 1.473.554 2.047.943l.189.129v-4.203l-.072-.03c-.531-.227-1.23-.42-2.08-.578a12.752 12.752 0 0 0-2.279-.234zM209.66 76.677c-1.68 0-3.005-.554-3.937-1.645-.94-1.096-1.415-2.658-1.415-4.645 0-2.049.475-3.652 1.415-4.768.933-1.108 2.244-1.67 3.9-1.67 1.604 0 2.881.536 3.797 1.597.919 1.066 1.386 2.657 1.386 4.73 0 2.099-.438 3.71-1.304 4.789-.86 1.07-2.153 1.612-3.842 1.612zm.206-16.492c-3.207 0-5.752.933-7.565 2.774-1.815 1.843-2.735 4.391-2.735 7.577 0 3.026.9 5.458 2.668 7.232 1.77 1.774 4.18 2.672 7.162 2.672 3.107 0 5.602-.946 7.416-2.812 1.813-1.866 2.733-4.391 2.733-7.502 0-3.073-.862-5.524-2.566-7.286-1.7-1.762-4.094-2.655-7.113-2.655zm-17.325 3.812V60.65h-4.572v19.323h4.572v-9.885c0-1.68.384-3.062 1.14-4.104.747-1.03 1.743-1.553 2.958-1.553.411 0 .874.068 1.375.201.496.134.855.277 1.066.429l.191.138v-4.583l-.074-.03c-.426-.18-1.028-.272-1.79-.272-1.15 0-2.177.367-3.058 1.09-.774.635-1.331 1.506-1.759 2.592h-.049zm-12.758-3.812c-2.097 0-3.969.447-5.56 1.329a8.967 8.967 0 0 0-3.665 3.748c-.836 1.601-1.26 3.47-1.26 5.553 0 1.826.41 3.501 1.224 4.978a8.581 8.581 0 0 0 3.42 3.438c1.456.801 3.137 1.208 4.998 1.208 2.173 0 4.027-.43 5.514-1.284l.06-.034v-4.164l-.19.138a8.608 8.608 0 0 1-2.237 1.159c-.808.28-1.547.421-2.192.421-1.794 0-3.234-.557-4.278-1.657-1.048-1.103-1.58-2.65-1.58-4.596 0-1.96.555-3.546 1.646-4.717 1.089-1.167 2.532-1.76 4.288-1.76 1.502 0 2.967.506 4.352 1.505l.191.139V61.2l-.062-.035c-.521-.29-1.23-.53-2.115-.711a12.862 12.862 0 0 0-2.554-.27zm-13.634.466h-4.572v19.323h4.572V60.65zm-2.24-8.232a2.76 2.76 0 0 0-1.946.76 2.499 2.499 0 0 0-.817 1.894c0 .74.272 1.366.807 1.86.533.49 1.191.739 1.957.739s1.425-.248 1.965-.74a2.417 2.417 0 0 0 .818-1.859c0-.725-.267-1.356-.795-1.874s-1.197-.78-1.988-.78zm-11.406 6.806h-.15l-8.28 20.748h-3.308l-8.411-20.75h-.15v20.75h-4.385V53.01h6.72l7.966 20.028 8.207-20.028h6.457v26.964h-4.666v-20.75zm-61.996 6.158H69V44h21.505v21.383zm23.744 0H92.746V44h21.505v21.383zM90.506 89H69V67.617h21.506V89zm23.745 0H92.746V67.617h21.505V89z"/>
    </g>
</svg>
